<?xml version="1.0" encoding="UTF-8"?>
<!-- Generator: Adobe Illustrator 17.1.0, SVG Export Plug-In . SVG Version: 6.00 Build 0)  -->
<!DOCTYPE svg PUBLIC "-//W3C//DTD SVG 1.1//EN" "http://www.w3.org/Graphics/SVG/1.1/DTD/svg11.dtd">
<svg version="1.1" id="Layer_1" xmlns="http://www.w3.org/2000/svg" xmlns:xlink="http://www.w3.org/1999/xlink" x="0px" y="0px" viewBox="0 0 350.6 262.6" enable-background="new 0 0 350.6 262.6" xml:space="preserve">
<g>
	<path fill="#FF5000" d="M343.3,36.2c0-0.4,0-0.7-0.1-1c-0.2-0.6-1.1-0.4-1.6-0.4c-1.1,0.1-2.4-0.2-3.5-0.2c-1-0.1-2.2-0.1-3.1-0.5   c-1.1-0.5-1.8-0.6-2.7-1.3c-1.2-0.8-1.7-2.3-2.2-3.6c-0.3-0.7-0.5-1.5-0.9-2.2c-0.7-1.6-1.8-3.3-2.9-4.6c-1-1.1-1.7-1.9-2.8-2.9   c-1.1-1.1-2.8-1.5-3.7-2.8c-0.9-1.3-0.4-3.3-0.3-4.8c0.1-1.9,0.1-3.7-0.2-5.6c0-0.4-0.2-3.1-0.9-3c-0.3,0-0.5,0.9-0.6,1.1   c-0.2,0.8-0.4,1.6-0.6,2.4c-0.5,1.7-1.4,3.2-2.3,4.7c-0.5,0.8-1,1.6-1.5,2.4c-0.2,0.3-0.6,0.9-1,1c-0.1,0-0.2,0-0.3,0   c-0.4-1.7-0.8-3.4-0.9-5.1c-0.1-1.9,0-3.7,0.1-5.6c0.1-1.2,0.4-2.7,0-3.9c-0.3-0.9-0.9-0.1-1.3,0.3c-0.9,1.1-1.5,2.4-2.2,3.6   c-0.8,1.5-1.6,3-2.5,4.5c-1.8,3.1-4,5.8-7.5,7.1c-1.6,0.6-3.4,1-5,1.6c-1.4,0.6-2.7,1.5-3.7,2.7c-0.3,0.3-1.4,1.5,0,0.7   c0.2-0.1,0.9-0.3,0.9,0.1c0.4-0.1,0.5,0.3,0.1,0.4c-0.4,0.2-0.8,0.3-1.2,0.5c-0.1,0.1-0.8,0.6-1,0.3c-1.3,0.5-2.4,1-3.5,1.7   c-1,0.6-2.2,0.9-2.9,1.9c-0.2,0.3-1.3,1-1.1,1.3c0.2,0.4,1.1-0.2,1.3-0.3c0.6-0.2,1.1,0.1,0.7,0.7c-0.4,0.5-0.9,1-1.4,1.4   c-0.5,0.4-1.1,0.5-1.7,0.9c-0.6,0.3-1.2,0.6-1.9,0.9c-1.3,0.5-2.6,1-4,1.2c-0.7,0.1-1.3,0.3-2,0.5c-0.6,0.2-1.1,0.1-1.7,0.2   c-0.5,0.1-3,1.5-2.4,2.2c0.1,0.1,0.5,0.2,0.5,0.3c0,0.2-0.5,0.2-0.6,0.3c-0.7,0.1-1.4,0-2,0.2c-1.3,0.3-2.6,1-3.8,1.7   c-0.2,0.1-0.5,0.3-0.7,0.5c0.4,0.4-1.8,1.1-2.2,1.2c-0.5,0.2-0.9,0.2-1.4,0.2c-0.5,0-0.9,0.3-1.4,0.2c-0.5,0-0.8-0.2-1.3-0.2   c-0.5,0-1,0.1-1.5,0c-0.5-0.1-0.8-0.4-1.3-0.5c-0.5-0.1-0.9-0.3-1.4-0.4c-1-0.2-2.2-1-3.1-0.5c0.1,0.5,0.1,0.8,0.4,1.3   c0.2,0.3,0.6,0.6,0.9,0.9c0.2,0.1,0.3,0.3,0.5,0.5c0.1,0.1,0.3,0.2,0.4,0.3c0.2,0.3-0.2,0.5-0.3,0.2c0,0,0,0.1,0,0.1   c-0.5,0-1,0.2-1.6,0.2c-0.5,0-1.4,0.1-1.9-0.2c-0.1,0-0.2-0.2-0.2-0.2c-0.1-0.1-0.3,0-0.5,0c-0.3,0-0.6-0.1-1-0.1   c-0.6,0-1.3-0.1-1.9-0.1c-1.1-0.1-2.3-0.3-3.4-0.4c-0.4-0.1-1.4-0.3-1.8,0c-0.6,0.6,2.2,1.6,2.6,1.8c0.5,0.3,1.2,0.5,1.6,0.9   c0.5,0.4-0.2,0.5-0.5,0.5c-1.3,0-2.7-0.4-4-0.7c-1.4-0.4-2.9-0.6-4.2-1.2c-0.6,0.3-1.4-0.3-1.9-0.5c-0.7-0.2-1.5-0.3-2.3-0.5   c-0.5-0.1-1.6-0.3-1.3,0.6c0.2,0.5,1,1,1.4,1.3c0.1,0.1,0.8,0.4,0.6,0.7c-0.1,0.3-0.6-0.1-0.8-0.2c-0.1,0.3-0.4,0.1-0.6,0   c-0.1,0-0.3-0.2-0.4-0.2c-0.1,0-0.2,0.1-0.3,0.1c-0.3,0-0.5-0.2-0.7-0.3c-0.2,0-0.4,0-0.6-0.1c-0.5-0.1-0.9-0.4-1.3-0.5   c-0.5-0.1-1.1-0.4-1.6-0.6c-0.5-0.2-1.2-0.4-1.8-0.5c-0.8,0.2-1.6-0.2-2.3-0.5c-0.9-0.3-1.8-0.5-2.7-0.7c-0.9-0.2-1.9-0.3-2.8-0.5   c-0.8-0.2-1.6-0.4-2.5-0.2c-0.3,0-2.3,0.4-1.6,0.9c0.4,0.3,1,0.3,1.4,0.5c0.4,0.1,0.7,0.3,1.1,0.5c0.4,0.2,0.7,0.3,1.1,0.5   c0.2,0.1,0.8,0.5,0.8,0.7c-0.1,0.4-2-0.3-2.3-0.4c-0.9-0.2-1.9-0.1-2.8-0.3c-1-0.2-2.1-0.2-3.1-0.5c-1.2,0.2-2.3-0.3-3.4-0.3   c-1.2,0-2.5-0.1-3.7,0.1c-1.2,0.1-2.4,0.3-3.6,0.5c-1.1,0.2-2.2,0.4-3.2,0.9c-0.4,0.2-0.8,0.3-0.2,0.5c0.5,0.2,1.2,0.1,1.7,0   c0.6,0,0.3,0.1,0.9,0.1c0.2,0,0.5-0.1,0.3,0.1c-0.3,0.4-0.5,0.3-0.9,0.5c-0.7,0.4-1.2,0.6-2,0.8c-1.9,0.5-3.8,0.7-5.7,1.1   c-0.3,0.1-0.7,0.1-1,0.2c-0.9,0.2-1.9,0.4-2.8,0.5c-1.4,0.2-2.7,0.3-4.1,0.5c-1.3,0.2-2.6,0.5-3.8,1c-0.6,0.2-1.2,0.6-1.6,1.1   c-0.3,0.4-0.3,0.7,0.2,0.8c0.7,0.1,1.5-0.2,2.2-0.4c0.7-0.2,1.4-0.2,2.1-0.2c-0.1,0.9-1.9,0.9-2.5,1.2c-0.5,0.2-1.1,0.4-1.6,0.7   c-0.5,0.3-1,0.7-1.6,0.9c0.4,0.1,0.1,0.4-0.2,0.5c-0.4,0.1-0.9,0.1-1.3,0.1c-0.4,0-0.7,0.2-1.1,0.2c-0.5,0-0.9,0-1.4,0   c-0.4,0-0.9,0.1-1.4-0.1c-0.4-0.1-0.8-0.4-1.2-0.5c-0.4-0.2-0.8-0.3-1.1-0.6c-0.3-0.2-0.7-0.6-1.1-0.4c-0.3,0.2-0.3,0.8-0.3,1.1   c0,0.2,0.3,0.5,0.2,0.7c-0.2,0.3-0.7-0.2-0.8-0.3c-0.3-0.2-0.6-0.3-0.8-0.5c-0.2-0.1-0.4-0.3-0.6-0.4c-0.2-0.1-0.4-0.1-0.6-0.3   c-0.4-0.3-0.8-0.4-1.2-0.7c-0.4-0.3-0.8-0.6-1.3-0.9c-0.5-0.1-0.9-0.6-1.4-0.6c-0.7,0-0.6,0.9-0.5,1.3c0.2,0.3,0.9,1.1,0.4,1.4   c-0.5,0.3-1.5-0.2-2-0.3c-0.7-0.1-1.2-0.4-1.8-0.7c-0.6-0.3-1.2-0.4-1.8-0.6c-1.3-0.4-2.4-1.1-3.6-1.7c-0.6-0.3-1.2-0.7-1.8-1.1   c-0.5-0.4-1.1-0.8-1.7-0.9c-0.8-0.1-0.9,0.5-0.6,1.1c0.3,0.6,0.9,1,1.3,1.6c0.2,0.3,0.8,1.1,0.1,1.2c-0.4,0-0.8-0.1-1.1-0.1   c-0.4,0-0.8,0-1.2-0.1c-1.4-0.1-2.7-0.7-4-1.2c-2.6-1-4.7-2.9-6.7-4.8c-0.3-0.3-0.6-0.5-0.8-0.8c-0.1,0.3-0.3,0.1-0.4,0   c-0.1-0.1-0.2-0.3-0.3-0.3c-0.1,0-0.3,0-0.5,0c0,0.1-0.2,0.5-0.2,0.6c0,0.1,0.2,0.4,0.3,0.5c0.1,0.4,0.3,0.8,0.4,1.2   c0.5,0.1,0.3,1.1,0.3,1.5c0.1,0.3,0.7,1.2,0.4,1.6c-0.1,0.1-0.8,0.1-0.9,0.1c-0.4,0-1.1-0.2-1.5-0.4c-0.4-0.2-0.8-0.6-1.2-0.9   c-0.2,0.2-0.3,0.1-0.5-0.1c-0.2-0.2-0.4-0.2-0.7-0.3c-0.3-0.2-0.4-0.5-0.6-0.6c-0.4-0.3-0.7-0.6-1-1c-1.1-0.7-1.7-1.6-2.4-2.7   c-0.3-0.6-0.8-1.1-1.2-1.5c-0.5-0.5-0.9-1-1.4-1.5c-0.3-0.3-1-1-1.4-0.6c-0.4,0.3,0,1.1,0.2,1.5c0.2,0.6,0.4,1.2,0.4,1.9   c0,0.5,0.2,1.5-0.1,2c-0.6,1-2.2-1.3-2.5-1.8c-0.7-1.1-1.5-2.2-2.1-3.4c-0.6-1.3-1.1-2.6-1.7-4c-0.3-0.7-0.6-1.3-0.9-1.9   c-0.2-0.6-0.4-1.4-0.9-1.8c-0.5-0.5-0.9,0-1,0.6c-0.1,0.8,0.1,1.6,0.1,2.3c0,0.6,0,1.2,0.1,1.8c0.1,0.4,0.2,0.7,0.3,1.1   c0.1,0.2,0.3,0.6,0.2,0.8c-0.1,0.5-0.7,0-0.9-0.2c-0.5-0.5-0.8-1.1-1-1.7c-0.5-1.3-1.2-2.5-2-3.6c-0.8-1-1.5-2-2.4-2.9   c-0.9-1-1.8-2-2.8-2.9c-0.5-0.4-1-0.8-1.4-1.3c-0.5-0.5-0.9-1.1-1.6-1.4c-0.4-0.2-1.2-0.4-1.4,0.1c-0.2,0.5,0.3,1.4,0.5,1.9   c0.1,0.3,0.4,1.2-0.1,1.2c-0.5,0-1-0.7-1.3-1c-0.9-0.8-1.9-1.6-2.9-2.3c-1-0.7-2-1.5-3.1-2.2c-1-0.6-2.1-1.4-3.3-1.3   c-0.3,0-0.6,0.1-0.8,0.2c-0.2,0.1-0.6,0.1-0.7,0.3c-0.2,0.3,0.2,0.5,0.4,0.6c0.2,0.2,0.4,0.4,0.6,0.6c0.2,0.2,0.4,0.4,0.6,0.6   c0.1,0.1,0.2,0.2,0.3,0.3c0.1,0.1,0.1,0,0.2,0.1c0.2,0,0.4,0,0.5,0.2c0.2,0.2,0.4,0.4,0.5,0.7c0.3,0.5,0.6,0.9,1,1.3   c0.4,0.5,0.7,1,1.1,1.6c1,0.4,1.5,1.8,2.1,2.6c0.7,1.1,1.1,2.2,1.5,3.4c0.3,1.1,1.1,2.2,1.1,3.4c0,1.4-1.5,0.1-2.1-0.1   c-0.6-0.2-1.2-0.4-1.7-0.8c-0.5-0.4-0.9-1.4-1.6-1.4c-0.3,0-0.7,0.1-0.8,0.4c0,0.2,0.1,0.4,0.2,0.5c0.1,0.2,0.2,0.5,0.3,0.7   c0.5,0.9,1,1.9,1.5,2.8c0.3-0.4,0.5,0.3,0.6,0.5c0.2,0.4,0.4,0.9,0.6,1.3c0.1,0.2,0.2,0.2,0.4,0.4c0.2,0.2,0.3,0.4,0.4,0.6   c0.1,0.2,0.2,0.4,0.3,0.6c0.1,0.1,0.1,0.2,0.2,0.3c0.1,0.3,0.2,0.5,0.3,0.8c0,0.1,0,0.1,0,0.2c-0.1,0.2,0,0.3-0.3,0.2   c-0.2,0-0.3-0.2-0.4-0.3c-0.3-0.2-0.5-0.5-0.8-0.6c-0.5-0.3-1.4-0.4-1.4,0.4c0,0.7,0.7,1.2,1.2,1.6c0.5,0.5,0.8,1,1.1,1.6   c0.4,0.7,0.8,1.3,1.1,2c0.3,0.7,0.5,1.3,0.9,1.9c0.2,0.3,0.7,1.2,0.2,1.5c-0.5,0.2-1.2-0.5-1.5-0.8c-0.5-0.5-1-1.1-1.5-1.6   c-0.4-0.5-1.2-2-1.9-1.4c-0.4,0.3-0.1,1,0.1,1.4c0.3,0.8,0.8,1.4,1.1,2.2c0.3,0.8,0.9,1.5,1.3,2.2c0.2,0.4,0.4,0.8,0.6,1.1   c0.2,0.3,0.6,0.5,0.9,0.8c0.6,0.7,1.3,1.4,2.1,2c0.3,0.2,0.6,0.4,0.8,0.7c0.1,0.1,0.2,0.2,0.3,0.4c0,0,0,0.3,0,0.3   c0.9,0.9,1.7,1.6,2.7,2.3c0.5,0.3,0.9,0.7,1.3,1.1c0.4,0.4,0.8,0.9,1.1,1.3c0.2,0.2,0.3,0.4,0,0.6c-0.2,0.1-0.4,0.1-0.5,0   c0,0,0,0,0,0c-0.5-0.3-1.2-0.4-1.7-0.5c-0.6-0.1-1.1-0.3-1.7-0.5c-0.6-0.2-1.2-0.4-1.8-0.7c-0.3-0.1-0.6-0.3-0.9-0.2   c-0.3,0-0.4,0.4-0.6,0.4c0.1,0.4,0.2,1.1,0.5,1.4c0.1,0.1,0.4,0.2,0.5,0.4c0.2,0.2,0.4,0.3,0.5,0.5c0.3,0.3,0.6,0.9,1,1.1   c0.1,0,0.2,0,0.2,0c0.1,0,0.2,0.2,0.3,0.2c0.2,0.2,0.4,0.4,0.6,0.5c0.3-0.6,3.5,1.9,4,2.1c0.1-0.5,1,0.2,1.2,0.3   c0.5,0.2,1,0.4,1.5,0.7c0.5,0.3,1,0.3,1.5,0.5c0.1,0.1,0.3,0.2,0.2,0.3c-0.1,0.2-0.4,0-0.5,0c0.1,0,0.1,0.1,0.2,0.1   c-0.4,0-1.2,0.1-1.1,0.7c0.1,0.6,1.2,0.6,1.7,0.8c0.6,0.2,1.2,0.4,1.8,0.4c0.7,0.1,1.3,0.2,1.9,0.4c0.6,0.2,1.3,0.3,1.9,0.5   c0.6,0.2,1.2,0.5,1.9,0.6c1.4,0.2,2.8,0.4,4.2,0.5c1.3,0.1,2.6,0.3,3.9,0.6c0.5,0.1,1.1,0.2,1.6,0.4c0.3,0.1,0.5,0.3,0.1,0.4   c-0.6,0.1-1.6-0.1-2.1,0.4c-0.3,0.3-0.3,0.8,0.1,1c0.5,0.2,1.3,0.1,1.9,0.1c2.6,0.1,5.1,0.1,7.7-0.1c0.4,0,0.8-0.1,1.2,0   c0.1,0,0.3,0,0.5,0.1c0,0,0.2,0.2,0.2,0.2c0.5,0,1,0,1.5,0c0.4,0,0.8-0.3,1.3-0.3c0.2,0,0.5,0,0.7-0.1c0.2-0.1,0.4-0.2,0.6-0.3   c0.2-0.1,0.9-0.4,1,0c0.4-0.1,1.9-0.7,2.2-0.3c0.3,0.3-0.8,1.2-0.9,1.5c-0.3,0.6-0.2,0.9,0.5,0.7c0.4-0.1,0.8-0.4,1.2-0.6   c0.4-0.2,0.8-0.2,1.2-0.4c0.9-0.3,1.6-0.9,2.4-1.4c0.8-0.5,1.6-1.1,2.4-1.5c0.7-0.4,1.2-1.1,1.9-1.6c0.7-0.5,1.3-1.2,2-1.8   c0.4-0.3,0.7-0.7,1.1-1c0.2-0.2,0.6-0.7,0.9-0.5c0.4,0.2,0.1,0.7,0,1c-0.2,0.4-0.3,0.8-0.3,1.3c1-0.1,1.5-1.3,2-2.1   c0.2-0.4,0.4-0.8,0.7-1.1c0.3-0.3,0.6-0.6,0.9-1c0.7-0.7,1.4-1.5,2.2-2.1c0.7-0.6,1.5-1.1,2.2-1.8c0.3-0.3,1.9-2.3,2.3-1.9   c0.5-0.7,0.9,0.7,0.9,1c0.2,0.8,0.2,1.6,0.3,2.4c0.1,1.3-0.7,2.8-1.4,3.8c-0.2,0.3-0.5,0.6-0.7,0.9c-0.1,0.3-0.2,0.6-0.4,0.8   c-0.2,0.2-0.5,0.3-0.5,0.6c0,0.3,0.2,0.6,0.5,0.7c0.2,0,0.4-0.1,0.5,0.1c0.1,0.3-0.3,0.8-0.5,1c-0.5,0.6-1,1.3-1.5,1.9   c-0.3,0.4-0.6,0.7-1,1c-0.3,0.3-0.5,0.6-0.9,0.9c-0.3,0.3-0.7,0.5-1.1,0.8c-0.3,0.2-0.5,0.4-0.9,0.3c-0.4-0.1-0.2,0.8-0.1,0.9   c0.1,0.1,0.2,0.2,0.1,0.3c-0.4,0.3-0.7,0.6-1.1,0.9c0,0,0,0.1-0.1,0.1c-0.6,0.5-1.3,1.1-2,1.4c0,0.1,0,0.1-0.1,0.2   c-0.5,0.4-1,0.8-1.6,1.1c-0.5,0.3-0.9,0.6-1.4,0.9c-0.4,0.2-0.7,0.4-0.5,0.9c0.2,0.4,0.5,0.6,0.9,0.6c0.1,0.3,0,0.3-0.2,0.5   c-0.2,0.2-0.3,0.4-0.4,0.7c-0.3,0.6-0.6,1.2-0.5,1.8c0,0.7-0.2,1.4-0.3,2.1c-0.1,0.7-0.3,1.4-0.5,2.1c-0.2,0.7-0.3,1.4-0.3,2.1   c0,0.3-0.1,0.6,0.3,0.5c0.2-0.1,0.2-0.3,0.4-0.2c0.4,0.2-0.2,1.3-0.4,1.6c-0.3,0.6-0.5,1.3-0.8,1.9c-0.2,0.4-0.4,0.7-0.5,1.1   c-0.2,0.3-0.3,0.7-0.4,1c-0.2,0.3-1.1,1.6-0.4,1.8c0.3-0.5,0.6-0.3,0.6,0.2c0,0.3-0.2,0.4-0.3,0.7c-0.1,0.3-0.2,0.5-0.2,0.8   c-0.1,0.5-0.2,1-0.2,1.6c0,0.3-0.1,0.6-0.1,0.9c-0.1,0.2-0.3,0.4-0.3,0.6c0,0.6,0.6,0.2,0.7,0.6c0.1,0.2,0,0.6,0,0.9   c0,0.3,0,0.5-0.1,0.8c0,0.6-0.1,1,0,1.6c0.1,0.5,0,1.1,0.2,1.7c0.2,0.6,0.3,1.3,0.3,1.9c0,0.5,0.3,1,0.5,1.5   c1.1,1.7,2.5,3.3,4.7,3.7c1.2,0.2,2.4,0.1,3.6,0c1.2,0,2.4,0,3.6-0.3c1.8-0.5,2.9-2.5,1.6-4.1c-1.2-1.5-3.3-1.6-4.5-3   c-1.3-1.4-2.4-4.1-1.3-5.9c0.1-0.1,0.2-0.3,0.3-0.4c-0.4-0.3,0-1.3-0.1-1.8c0-0.3-0.2-0.5-0.2-0.8c0-0.3-0.1-0.6-0.1-0.9   c0-0.2,0-0.5,0.3-0.5c0.2,0,0.4,0.3,0.6,0.4c0.7,0.5,0.4-0.6,0.5-0.9c-0.3-0.1-0.1-0.5-0.1-0.7c0.1-0.2,0-0.5,0.1-0.7   c-0.8-0.5,1-2.7,1.7-2.9c0.3-0.1,0.3,0.1,0.5,0.3c0.1,0.2,0.3,0.4,0.5,0.4c0.7,0.2,0.9-0.6,1.2-1.2c0.1-0.2,0.1-0.4,0.2-0.5   c0.1-0.2,0.2-0.3,0.2-0.5c0-0.2,0-0.3,0-0.4c0.1-0.2,0.2-0.4,0.3-0.6c-0.3-0.5,0.4-1.1,0.7-1.5c0.3-0.4,0.7-1.2,1.2-1.4   c0.2-0.1,0.4,0,0.6,0.1c0.3,0.1,0.6,0,0.9,0c0.7-0.1,1.3-0.1,2-0.1c1.1-0.1,2.2-0.2,3.2-0.4c0.3-0.1,1.1-0.3,1.4-0.1   c0.3,0.2-0.1,0.7-0.1,1c0.1,0.6,0.8,0.3,1.1,0.2c0.5-0.2,1.1-0.3,1.6-0.6c0.5-0.2,1.1-0.6,1.6-0.8c0.3-0.2,1-0.8,1.4-0.7   c0.4,0.1,0.4,0.8,0.8,0.9c0.5,0.1,0.9-0.6,1.1-0.9c0.3-0.4,0.7-0.7,1-1c0.7-0.9,1.5-1.6,2.4-2.3c0.4-0.3,0.8-0.8,1.3-0.9   c0.4-0.1,0.8,0.1,1.1-0.1c0.5-0.3,0.8-0.8,1.2-1.2c0.4-0.4,0.8-0.8,1.2-1.1c0.3-0.2,2.3-1.4,2.5-0.8c0,0.1-0.2,0.4-0.3,0.4   c0.6,0.7,1.1,0.2,1.7-0.1c0.6-0.3,1.3-0.5,2-0.7c0.6-0.2,1.3-0.5,1.8,0c0.5,0.5,0.9,0.9,1,1.6c0.1,0.8-0.3,1.8,0.8,2.1   c0.1-0.2,0.2-0.4,0.3-0.7c0.1-0.2,0.1-0.5,0.2-0.6c0.2-0.2,0.4,0,0.5,0.2c0.2,0.6,0,1.3-0.1,1.9c-0.1,0.3-0.3,1-0.2,1.3   c0.1,0.2,0.4,0.1,0.2,0.4c-0.1,0.2-0.3,0.4-0.4,0.7c-0.2,0.5-0.5,1.1-0.9,1.5c-0.8,0.9-1.7,1.8-2.7,2.4c-0.7,0.4-1.1,0.7-1.3,1.5   c0.1,0.1,0.1,0.1,0.1,0.2c0.2,0,0.4,0.4,0.4,0.5c0,0.2-0.3,0.7-0.5,0.4c-0.5,0.7-0.6,1.5-0.9,2.3c-0.4,0.8-0.6,1.6-0.7,2.5   c0,0.5-0.1,1.7,0.5,2c0.6,0.2,0.5-1.3,1.2-1c0.4,0.1,0.7,0.7,1,1c0.4,0.4,0.7,0.7,1.1,1.1c0.2-0.2,0.4,0.1,0.6,0.2   c0.2,0.2,0.4,0.3,0.7,0.5c0.2,0.2,0.4,0.4,0.6,0.6c0.2,0.2,0.5,0.3,0.7,0.5c0.5,0.3,0.9,0.7,1.4,0.9c0.2,0.1,0.4,0.1,0.6,0.3   c0.2,0.2,0.4,0.3,0.7,0.5c0.1,0,0.1,0.1,0.2,0.1c0.1,0,0.1-0.1,0.2,0c0.2,0.1,0.2,0.2,0.4,0.2c0.3,0.1,0.5,0.1,0.8,0.2   c0.1-0.2-0.3-0.5,0.1-0.6c-0.2-0.5-0.1-0.9,0.5-0.6c0.2,0.1,0.4,0.2,0.7,0.3c0.3,0.1,0.4,0.3,0.6,0.5c0.4,0.4,0.9,0.7,1.3,1.1   c0.2,0.2,0.4,0.4,0.6,0.6c0.2,0.2,0.3,0.5,0.4,0.6c0.2,0.2,0.4,0.3,0.5,0.5c0.2,0.2,0.4,0.5,0.6,0.7c0.4,0.4,0.8,0.6,1.3,1   c0.4,0.3,0.9,0.7,1.4,0.9c0.5,0.2,1,0.6,1.4,0.9c0.5,0.3,1,0.6,1.5,0.9c0.3,0.2,1.3,0.6,0.9,1.1c1,1.4,2,3.2,3.7,3.9   c1.7,0.7,3.5,0.1,5.2,0.1c1,0,2,0.2,2.9,0.3c0.9,0.1,2,0.2,2.7-0.5c1.4-1.3-0.4-3.8-1.3-4.9c-0.6-0.7-1.2-1.4-2-2   c-1.2-0.8-2.8-0.9-4.1-1.6c-0.9-0.5-1.8-0.9-2.8-1.2c-0.9-0.3-1.8-0.5-2.7-0.8c-0.9-0.3-1.8-0.9-2.6-1.4c-0.2-0.1-0.6-0.3-0.4-0.6   c0.2-0.2,0.7-0.1,0.9-0.3c0.4-0.5-1.4-1.4-1.7-1.7c-0.7-0.6-1.5-1.2-2.1-1.8c-0.7-0.7-1.2-1.5-1.7-2.3c-0.6-0.9-0.9-2-0.6-3.1   c0.3-1,1.1-1.8,1.9-2.4c0.4-0.3,0.7-0.8,1.1-1.2c0.2-0.2,0.2-0.2,0.5-0.2c0,0,0.1,0.1,0.1,0.1c0.1,0,0.1-0.1,0.1-0.1   c0.1,0,0.2-0.1,0.3,0.1c0.8-0.4,1-1.4,1.7-1.9c0.4-0.3,0.5,0,0.5,0.4c0,0.5-0.1,0.9,0.3,1.4c0.1-0.1,0.3-0.1,0.4,0   c0.6-1.2,1.2-2.3,1.8-3.4c0.3-0.5,0.5-0.7,0.7-0.1c0.1,0.3,0.2,0.5,0.3,0.7c0.1,0.2,0.2,0.5,0.4,0.7c0.8,0.5,0.7-0.9,1-1.2   c-0.1-0.4,0.1-0.8,0.2-1.2c0.1-0.4,0.1-0.8,0.3-1.2c0.2-0.4,0.2-0.7,0.3-1.1c0.1-0.4,0.3-0.8,0.5-1.2c0.7-1.6,1.4-3.1,2.9-4.3   c0.3-0.2,0.7-0.6,1.1-0.5c0.5,0.1,0.7,0.4,1.3,0.3c0.1-0.6,0.3-1.1,0.4-1.7c0.1-0.3,0-1.6,0.4-1.7c0.2,0,0.5,0.4,0.7,0.5   c0.2,0.2,0.5,0.4,0.7,0.6c0.4,0.3,0.9,0.7,1.4,0.7c0.7,0.1,0.8-0.7,0.8-1.2c0-0.5-0.3-1,0.4-0.9c0.6,0,1.2,0.1,1.8,0   c0.7,0,1.4-0.2,2-0.2c0.9,0,0.7,0.8,0.5,1.4c-0.2,0.7-0.5,1.2-0.5,2c0.6,0.5,1.1,0,1.7-0.3c0.6-0.3,1.3-0.5,1.9-0.8   c0.7-0.3,1.4-0.5,2.1-0.7c0.5-0.1,1.3-0.5,1.8-0.2c0.7,0.3,0.1,1.2,0.3,1.7c0.1,0.3,0.2,0.5,0.6,0.4c0.7-0.1,1.5-0.6,2.2-0.9   c0.3-0.1,0.6-0.3,0.9-0.5c0.2-0.1,0.7-0.5,1-0.4c0.7,0.3-0.6,1.3-0.8,1.5c-0.5,0.4-0.7,0.8-0.7,1.4c0.1,0,0.3,0.1,0.2,0.3   c0.7,0.1,1.3-0.2,1.9-0.4c0.7-0.2,1.3-0.3,2-0.5c0.7-0.2,1.5-0.3,2.2-0.4c0.7-0.1,1.3,0,2-0.1c0.3-0.1,1.5-0.5,1.2,0.2   c-0.3,0.6-1.1,0.7-1.4,1.2c-0.9,1.3,2.4,1,3,0.9c0.4,0,0.7-0.1,1.1-0.2c0.3-0.1,0.8-0.3,1.1-0.2c0.5,0.2-0.8,1-1,1.2   c0.2,0.5,0.8,0.2,1.2,0.3c0.5,0.2,1-0.1,1.5-0.1c0.3,0,0.5,0,0.8-0.1c0.3-0.1,0.5-0.2,0.8-0.3c0.5-0.1,0.9-0.4,1.4-0.6   c0.6-0.2,0.4,0.7,0.4,1.1c0.4-0.4,0.4,0.4,0.4,0.6c0,0.6,0,1.2,0,1.7c0,0.6,0,1.1,0,1.7c0,0.5-0.1,1.1,0,1.7c0.2-0.2,0.5,0,0.4,0.3   c0,0,0.1,0,0.1,0c-0.4,1.6-1.1,3.2-1.9,4.7c-0.4,0.7-0.6,1.5-0.9,2.2c-0.2,0.6-1,1.5-0.8,2.1c0.2,0.4,0.7,0,0.9-0.1   c0.3-0.2,0.7-0.4,1.1-0.4c-0.2,0.6-0.6,0.8-1.1,1.2c-0.5,0.4-1.1,0.9-1.6,1.5c-0.4,0.5-0.8,1.1-1.3,1.6c-0.4,0.5-0.9,0.9-1.3,1.4   c-0.2,0.3-0.5,0.4-0.8,0.6c-0.2,0.2-0.4,0.4-0.6,0.6c-0.5,0.4-1.1,0.6-1.7,1c-0.2,0.1-0.4,0.3-0.6,0.5c-0.3,0.2-0.6,0.2-0.9,0.3   c-0.6,0.2-1.1,0.6-1.8,0.7c-0.7,0.2-1.4,0.5-2.1,0.7c-0.3,0.1-0.7,0.2-1.1,0.3c-0.3,0.1-0.5,0.4-0.8,0.6c0.2,0.3-0.3,0.6-0.6,0.6   c-0.9,1.1-2.2,1.9-2.5,3.3c-0.4,1.4-0.6,2.9-0.3,4.4c0.2,0.9,0.5,1.5,1.5,1.7c0.9,0.1,1.7-0.4,2.5-0.7c0.6-0.2,1-0.5,1.5-0.9   c0.2-0.2,0.8-0.8,0.9-0.2c0.7,1.2,2.7-1.6,3.4-2c0.7-0.4,1.3-1.1,1.9-1.6c0.6-0.4,1.1-1.1,1.8-1.4c0.3-0.1,0.6-0.1,0.4,0.3   c-0.2,0.4-0.6,0.6-0.7,1.1c0.3,0.3,0.2,0.8,0.7,0.7c0.5-0.2,0.8-0.6,1.2-1c0.8-0.8,1.6-1.6,2.5-2.4c0.2-0.2,0.5-0.3,0.6-0.6   c0.1-0.2,0.2-0.5,0.4-0.6c0.5-0.2,0.1,0.6,0.6,0.4c0.2-0.1,0.5-0.4,0.7-0.5c0.2-0.2,0.4-0.3,0.7-0.5c0.4-0.3,0.6-0.8,1-1.2   c0.4-0.4,0.9-0.7,1.2-1.1c0.1-0.1,0.2-0.6,0.5-0.5c0.2,0.1,0,0.5,0,0.7c0.3,0,0.3-0.3,0.5-0.4c0.2-0.1,0.4-0.2,0.6-0.3   c0.2-0.2,0.3-0.4,0.5-0.6c0.2-0.2,0.4-0.3,0.6-0.5c0.3-0.4,0.5-1,0.6-1.5c0.1-0.2,0.3-1.2,0.6-0.7c0.3-0.5,0.5-1,0.6-1.6   c0.1-0.7,0-1.3,0.1-2c0.1-0.5,0.2-0.7,0.7-0.9c0.4-0.1,0.7-0.3,0.8-0.8c0.2-0.6,0.2-1.2,0.3-1.7c0.1-0.6,0.3-1.1,0.4-1.7   c0.1-0.5,0.2-1,0.4-1.5c0.3-0.5,0.5-1,0.8-1.5c0.5-1.1,0.9-2.2,1.5-3.2c0.5-0.9,1.2-2,1.9-2.7c0.4-0.4,0.9-0.7,1.3-1.2   c0.2-0.2,0.4-0.8,0.8-0.9c0.4-0.1,1,0.3,1.3,0.5c0.3,0.2,0.6,0.7,1,0.8c0.9,0.3,1.8-0.4,2.6,0.2c0.9,0.6,2.1,0,2.9-0.5   c0.2-0.1,0.8-0.7,0.9-0.3c0.2,0.8,0,1.7,0.1,2.5c0.1,0.6,0,1.2,0,1.8c0.3,0.1,0.2,0.3,0.4,0.5c0.1,0.1,0.2,0.1,0.3,0.1   c0.1,0.1,0.1,0.2,0.2,0.3c0.3,0.5,0.2,1.2,0.2,1.8c0,0.6,0.1,1.3,0,1.8c-0.1,0.3-0.1,0.6-0.1,0.9c0,0.2,0,0.3,0.1,0.4   c0,0.1,0.1,0.2,0.1,0.4c0.2-0.1,0.4,0,0.4,0.2c0.1-0.1,0.2-0.1,0.3,0c0.1-0.2,0.3-0.4,0.4-0.6c0.1-0.2,0.2-0.5,0.4-0.5   c0.4-0.2,0.9,0.6,1.1,0.8c0.4,0.4,0.8,0.6,1.2,1c0.4,0.4,0.8,0.8,1.2,1.1c0.2-0.4,0.7,0.3,0.9,0.4c0.3,0.1,0.6,0,0.9-0.1   c-0.1-0.4-0.2-1.1,0.4-0.7c0.5,0.3,1,0.7,1.5,1c0.5,0.3,0.9,0.8,1.4,1.1c0.5,0.3,0.9,0.8,1.4,1.2c0.2,0.2,0.4,0.4,0.7,0.6   c0.2,0.2,0.4,0.5,0.6,0.6c0.2-0.2,0.3,0,0.5,0c0.2,0,0.3-0.2,0.5-0.2c0.2,0,0.4,0.2,0.6,0.3c0.2,0.1,0.4,0.1,0.6,0.2   c0.8,0.3,1.5,0.7,2.2,1.2c0.2,0.1,0.3,0.2,0.5,0.3c0.2,0.1,0.3,0.3,0.5,0.5c0.1,0.1,0.3,0.2,0.4,0.4c0.2,0.1,0.3,0.4,0.4,0.5   c0.3,0.3,0.6,0.1,0.9-0.1c0.4-0.2,0.6-0.3,1-0.1c0.2,0.1,0.4,0.2,0.6,0.3c0.2,0.1,0.5,0.1,0.7,0.2c0.4,0.2,0.9,0.4,1,0.9   c0.2-0.2,0.4,0.1,0.6,0.2c0.2,0.1,0.4,0,0.5,0.2c0.3,0.3,0.5,0.7,0.8,1c0.5,0.6,1.3,1.2,1.8,0.3c0.5,0.2,1,0.3,1.5,0.5   c0.5,0.3,1,0.6,1.4,1c0.4,0.4,0.7,0.8,1.1,1.2c0.2,0.2,0.4,0.4,0.7,0.4c0.3,0.1,0.4-0.1,0.7,0.1c0.2,0.2,0.4,0.4,0.6,0.7   c0.2,0.2,0.4,0.4,0.6,0.7c0.3,0.5,0.7,1,1,1.4c0.1,0.1,0.2,0.3,0.2,0.3c0.1,0,0.2-0.1,0.3-0.1c0.1,0,0.3,0,0.4,0c0.1,0,0.2,0,0.4,0   c0.5,0.2,0.8,0.6,1.1,1c0.2,0.2,0.3,0.6,0.5,0.7c0.2,0.2,0.4,0,0.7,0.1c0.2,0.1,0.5,0.4,0.7,0.6c0.2,0.2,0.6,0.4,0.7,0.7   c2.6,1.5,6.4,3.8,9.3,1.5c1.2-1,1.7-2.6,0.8-4c-1-1.4-2.8-1.8-4.3-2.3c-1.6-0.5-3-1.3-4.2-2.5c-1.3-1.2-2.5-2.5-3.9-3.7   c-2.5-2.3-4.9-4.7-7.5-6.9c-2.5-2-5-3.8-7.4-5.9c-0.2-0.1-0.3-0.3-0.5-0.4c-0.1-0.1-0.2-0.2-0.3-0.2c0,0-0.1-0.1-0.1-0.1   c0,0,0.1-0.2,0.1-0.1c-0.9-0.7-1.8-1.1-2.8-1.7c-1-0.5-2.2-1.1-3-1.9c-0.7-0.9-1-2.2-1.4-3.2c-0.5-1.2-0.6-2.3-0.7-3.6   c0-0.5-0.1-1.3,0.2-1.6c0.3-0.3,0.9-0.1,1.3-0.1c1.1-0.1-0.1-2.4-0.2-3c-0.1-0.6,0-1.2,0-1.8c0-0.4,0-0.7,0-1.1   c0-0.2-0.1-0.6,0-0.7c0.3-0.4,0.9,1.7,1.3,1c0.3-0.4,0.1-1.3,0.2-1.8c0-0.6,0.1-1.3,0.2-1.9c0.2-1.3,0.4-2.6,0.6-3.9   c0-0.2,0.3-2.6,0.8-2c0.3,0.3,0.6,1.6,1,0.7c0.4-1,0.5-2.2,0.7-3.3c0.1-0.9,0.2-1.8,0.4-2.6c0.1-0.6,0.2-1.1,0.3-1.7   c0-0.2,0.1-1,0.4-1c0.6-0.2,0.9,1.5,1.4,1.6c0.6,0.1,0.4-2.1,0.5-2.5c0.1-0.9,0.4-1.8,0.6-2.7c0.2-0.9,0.3-1.7,1.1-2.3   c0.7-0.6,0.7-1.5,1-2.3c0.3-0.8,0.8-1.1,1.4-1.6c0.6-0.5,1,0,1.8-0.1c1-0.1,1.5-0.5,2.2-1.3c1.1-1.2,3.1-1,4.6-1   c1.1,0,2.2,0.2,3.2,0.3c1.1,0.1,2.2-0.7,3.3-0.7c1.1,0.1,2.2,0,3.3,0c1.2,0,3.2-0.1,4.4-0.5c0,0,0.1-0.1,0.1-0.1   c0.7-0.5,1.2-1.3,1.7-2c0.4-0.6,0.8-0.9,1.5-1.1c0.8-0.2,0.8-0.1,1.4-0.7c0.6-0.7,0.7-1.7,0.8-2.6C343.2,37,343.3,36.6,343.3,36.2z   "/>
	<g>
		<path fill="#FFFFFF" d="M285.5,27.8c0,0,0.2-0.1,0.4-0.2c0.3-0.1,0.6-0.2,1.1-0.4c0.2-0.1,0.4-0.2,0.7-0.3    c0.2-0.1,0.5-0.2,0.8-0.3c0.5-0.2,1.1-0.4,1.6-0.7c0.5-0.2,1-0.5,1.3-0.7c0.2-0.1,0.3-0.2,0.5-0.2c0.2,0,0.3-0.1,0.5-0.2    c0.3-0.2,0.5-0.5,0.7-0.8c0.2-0.3,0.2-0.4,0.2-0.4l0.2,0c0,0,0,0,0.1,0.1c0.1,0.1,0.1,0.2,0.2,0.4c0.1,0.2,0.1,0.4,0.2,0.7    c0,0.3,0,0.6-0.1,0.9c-0.1,0.3-0.3,0.6-0.6,0.9c-0.3,0.2-0.5,0.5-0.8,0.7c-0.6,0.3-1.3,0.3-1.9,0.4c-0.6,0.1-1.2,0.2-1.8,0.3    c-0.3,0-0.6,0-0.8,0c-0.3,0-0.5,0.1-0.8,0.1c-0.5,0-0.9,0.1-1.1,0.1c-0.3,0-0.5,0-0.5,0L285.5,27.8z"/>
	</g>
	<g>
		<path fill="#FFFFFF" d="M308,13.1c0,0-0.1-0.1-0.1-0.4c-0.1-0.2-0.2-0.6-0.4-1c-0.1-0.2-0.1-0.4-0.2-0.7c-0.1-0.2-0.1-0.5-0.1-0.8    c-0.1-0.6-0.1-1.2-0.1-1.8c0.1-0.6,0.1-1.2,0.3-1.7c0.1-0.3,0.2-0.5,0.4-0.7c0.2-0.2,0.3-0.4,0.5-0.5c0.3-0.3,0.7-0.5,0.9-0.7    c0.3-0.1,0.4-0.2,0.4-0.2l0.2,0.1c0,0,0,0.2,0,0.4c0,0.3-0.1,0.6-0.1,1c0,0.2-0.1,0.4-0.2,0.6c-0.1,0.2-0.1,0.4-0.2,0.7    c-0.2,0.4-0.5,0.9-0.7,1.4c-0.1,0.5-0.2,1-0.3,1.5c0,0.2-0.1,0.5-0.1,0.7c0,0.2,0,0.5,0,0.7c0,0.8,0,1.3,0,1.3L308,13.1z"/>
	</g>
	<g>
		<path fill="#FFFFFF" d="M296.8,23.2c0,0,0.5-0.5,1.2-1.3c0.2-0.2,0.4-0.4,0.6-0.6c0.2-0.2,0.4-0.4,0.7-0.7c0.5-0.5,0.9-1,1.4-1.5    c0.5-0.5,0.8-1,1.1-1.5c0.2-0.2,0.3-0.4,0.5-0.6c0.2-0.2,0.3-0.3,0.5-0.5c0.3-0.4,0.5-0.8,0.6-1.1c0.1-0.3,0.2-0.5,0.2-0.5l0.2,0    c0,0,0,0,0.1,0.1c0.1,0.1,0.2,0.2,0.2,0.4c0.2,0.3,0.4,0.9,0.3,1.6c0,0.3-0.1,0.7-0.3,1c-0.2,0.3-0.3,0.7-0.5,1    c-0.4,0.6-1.1,1-1.7,1.4c-0.6,0.4-1.1,0.8-1.7,1.2c-0.3,0.2-0.6,0.3-0.8,0.5c-0.3,0.2-0.5,0.3-0.7,0.5c-0.9,0.6-1.6,0.9-1.6,0.9    L296.8,23.2z"/>
	</g>
	<g>
		<path fill="#FFFFFF" d="M287.1,34.1c0,0,0.2,0,0.5-0.1c0.3-0.1,0.8-0.2,1.3-0.3c0.3-0.1,0.5-0.2,0.8-0.3c0.1-0.1,0.3-0.1,0.4-0.2    c0.2,0,0.3-0.1,0.5-0.2c0.6-0.2,1.2-0.6,1.8-1c0.6-0.3,1-0.8,1.4-1.2c0.1-0.1,0.2-0.2,0.3-0.3c0.1-0.1,0.2-0.2,0.4-0.3    c0.2-0.1,0.5-0.3,0.7-0.4c0.4-0.3,0.7-0.5,0.9-0.8c0.2-0.3,0.1-0.6,0.2-0.6l0.2-0.1c0,0,0.1,0,0.1,0.2c0.1,0.1,0.2,0.3,0.2,0.6    c0.1,0.5,0,1.2-0.3,1.8c-0.1,0.3-0.3,0.6-0.5,0.8c-0.2,0.2-0.4,0.5-0.7,0.8c-0.6,0.5-1.4,0.8-2.1,1.1c-0.7,0.3-1.4,0.5-2.2,0.6    c-0.4,0.1-0.7,0.1-1,0.1c-0.3,0-0.7,0.1-1,0.1c-0.6,0-1.1,0-1.4-0.1c-0.3-0.1-0.5-0.1-0.5-0.1L287.1,34.1z"/>
	</g>
	<g>
		<path fill="#FFFFFF" d="M309.4,55.9c0,0-0.1-0.2-0.2-0.5c-0.1-0.3-0.2-0.8-0.4-1.4c-0.1-0.3-0.1-0.6-0.2-1c-0.1-0.4,0-0.7-0.1-1.2    c0-0.8,0.1-1.7,0.2-2.6c0.2-0.9,0.4-1.8,0.9-2.6c0.1-0.2,0.2-0.4,0.4-0.6c0.1-0.2,0.3-0.3,0.4-0.5c0.2-0.1,0.3-0.3,0.4-0.4    c0.2-0.1,0.3-0.2,0.5-0.3c0.3-0.2,0.6-0.3,0.8-0.4c0.1,0,0.2-0.1,0.4-0.1c0.1,0,0.2,0,0.3-0.1c0.4-0.1,0.6-0.1,0.6-0.1l0.1,0.2    c0,0-0.1,0.2-0.3,0.5c-0.2,0.3-0.4,0.7-0.7,1.2c-0.2,0.2-0.3,0.5-0.5,0.7c-0.2,0.3-0.3,0.6-0.5,0.9c-0.3,0.6-0.8,1.2-1.1,1.9    c-0.2,0.7-0.4,1.4-0.6,2.2c-0.1,0.4-0.2,0.7-0.2,1c0,0.3-0.1,0.7-0.1,1c0,0.6,0,1.1,0,1.5c0,0.4,0,0.6,0,0.6L309.4,55.9z"/>
	</g>
	<g>
		<path fill="#FFFFFF" d="M303,71.6c0,0-0.1-0.2-0.3-0.7c-0.2-0.4-0.4-1.1-0.7-1.9c-0.1-0.4-0.2-0.9-0.3-1.3c-0.1-0.5-0.1-1-0.2-1.6    c-0.1-1.1,0-2.4,0.1-3.6c0.2-1.2,0.3-2.4,0.6-3.5c0.2-0.5,0.3-1.1,0.6-1.5c0.2-0.5,0.5-0.9,0.7-1.3c0.4-0.8,0.8-1.4,1.1-1.8    c0.3-0.4,0.5-0.7,0.5-0.7l0.2,0.1c0,0,0,0.1,0,0.2c0,0.2,0,0.4,0,0.7c0,0.6-0.1,1.3-0.3,2.2c-0.1,0.4-0.2,0.9-0.3,1.3    c-0.1,0.5-0.2,0.9-0.4,1.4c-0.3,1-0.7,2-1,3c-0.1,0.5-0.2,1.1-0.3,1.6c0,0.3-0.1,0.5-0.1,0.8c0,0.3-0.1,0.5-0.1,0.8    c-0.1,0.5-0.1,1-0.1,1.5c0,0.5,0.1,0.9,0.1,1.4c0,0.4,0.1,0.8,0.1,1.1c0,0.3,0.1,0.6,0.1,0.9c0.1,0.5,0.2,0.7,0.2,0.7L303,71.6z"/>
	</g>
	<g>
		<path fill="#FFFFFF" d="M293.4,56.4c0,0,0.6-0.5,1.5-1.4c0.2-0.2,0.5-0.4,0.7-0.7c0.2-0.2,0.6-0.5,0.8-0.7    c0.6-0.5,1.2-1.1,1.8-1.6c0.6-0.5,1.1-1.1,1.5-1.7c0.2-0.2,0.4-0.5,0.7-0.7c0.2-0.2,0.5-0.4,0.6-0.6c0.4-0.4,0.7-0.8,0.9-1.1    c0.1-0.2,0.2-0.3,0.2-0.4c0.1-0.1,0.1-0.1,0.1-0.1l0.2,0c0,0,0,0.1,0.1,0.2c0.1,0.1,0.1,0.3,0.2,0.5c0.1,0.4,0.1,1.1-0.1,1.8    c-0.1,0.3-0.3,0.7-0.5,1c-0.2,0.3-0.4,0.7-0.7,1c-0.6,0.6-1.3,1-2.1,1.4c-0.7,0.5-1.3,0.9-2,1.3c-0.3,0.2-0.7,0.3-1,0.5    c-0.3,0.2-0.6,0.4-0.9,0.5c-1.1,0.6-1.9,1-1.9,1L293.4,56.4z"/>
	</g>
	<g>
		<path fill="#FFFFFF" d="M292.7,49.3c0,0,0.1-0.2,0.4-0.5c0.1-0.2,0.2-0.3,0.4-0.6c0.1-0.2,0.3-0.5,0.4-0.7    c0.2-0.3,0.3-0.6,0.4-0.9c0.1-0.3,0.3-0.6,0.5-1c0.3-0.7,0.6-1.5,0.9-2.3c0.3-0.8,0.5-1.6,0.8-2.3c0.2-0.4,0.3-0.7,0.5-1    c0.1-0.1,0.2-0.3,0.3-0.4c0.1-0.1,0.2-0.3,0.3-0.4c0.3-0.5,0.6-0.9,0.7-1.3c0.1-0.2,0.1-0.3,0.1-0.4c0-0.1,0-0.2,0-0.2l0.2,0    c0,0,0,0.1,0.1,0.2c0.1,0.1,0.2,0.3,0.3,0.5c0.1,0.2,0.2,0.5,0.2,0.8c0,0.2,0,0.3,0,0.5c0,0.2,0,0.3-0.1,0.5    c0,0.2-0.1,0.3-0.1,0.5c0,0.2-0.1,0.4-0.2,0.5c-0.1,0.3-0.2,0.7-0.4,1c-0.3,0.7-0.8,1.4-1.3,2.1c-0.4,0.7-0.8,1.4-1.3,2.1    c-0.2,0.3-0.5,0.6-0.7,0.9c-0.1,0.2-0.2,0.3-0.3,0.4c-0.1,0.1-0.2,0.3-0.3,0.4c-0.4,0.5-0.9,0.9-1.2,1.1c-0.3,0.2-0.5,0.4-0.5,0.4    L292.7,49.3z"/>
	</g>
	<g>
		<path fill="#FFFFFF" d="M304.8,42.8c0,0,0-0.7,0-1.8c0-0.3,0-0.6,0-0.9c0-0.3,0.1-0.6,0.2-1c0.1-0.7,0.3-1.4,0.6-2.2    c0.3-0.7,0.6-1.4,1-2.1c0.2-0.3,0.5-0.6,0.8-0.8c0.3-0.2,0.6-0.4,0.9-0.5c0.3-0.1,0.5-0.2,0.8-0.3c0.2-0.1,0.4-0.1,0.6-0.1    c0.3,0,0.5,0,0.5,0l0.1,0.2c0,0-0.1,0.2-0.3,0.5c-0.2,0.3-0.4,0.6-0.7,1c-0.1,0.2-0.3,0.4-0.4,0.6c-0.2,0.2-0.3,0.5-0.5,0.7    c-0.4,0.5-0.8,0.9-1.2,1.4c-0.3,0.6-0.6,1.2-0.9,1.7c-0.1,0.3-0.3,0.6-0.4,0.8c-0.1,0.3-0.2,0.6-0.3,0.8c-0.3,1-0.5,1.7-0.5,1.7    L304.8,42.8z"/>
	</g>
	<g>
		<path fill="#FFFFFF" d="M278.2,81.2c0,0,0.1,0,0.3,0c0.2,0,0.4,0,0.7-0.1c0.6-0.1,1.4-0.3,2.3-0.8c0.4-0.2,0.9-0.5,1.3-0.8    c0.4-0.3,0.9-0.7,1.4-1c0.9-0.8,1.9-1.7,2.7-2.8c0.9-1,1.6-2.1,2.4-3.1c0.4-0.5,0.7-1,1.2-1.4c0.4-0.4,0.8-0.8,1.1-1.2    c0.7-0.7,1.3-1.3,1.7-1.7c0.4-0.4,0.7-0.6,0.7-0.6L294,68c0,0-0.1,0.4-0.3,1c-0.2,0.6-0.5,1.4-1,2.3c-0.2,0.4-0.5,0.9-0.8,1.4    c-0.3,0.5-0.6,1-1,1.4c-0.8,0.9-1.8,1.8-2.8,2.7c-0.9,0.9-1.9,1.8-3,2.5c-0.5,0.4-1.1,0.6-1.6,0.9c-0.5,0.3-1.1,0.5-1.6,0.7    c-1,0.4-2,0.5-2.6,0.5c-0.2,0-0.3,0-0.4,0c-0.1,0-0.2,0-0.3,0c-0.2,0-0.3,0-0.3,0L278.2,81.2z"/>
	</g>
	<g>
		<path fill="#FFFFFF" d="M276.2,62.5c0,0,0.1,0,0.2,0c0.1,0,0.3,0,0.5,0c0.5,0,1.1-0.1,1.8-0.2c0.4-0.1,0.8-0.1,1.2-0.2    c0.4-0.1,0.9-0.1,1.3-0.2c0.9-0.1,1.9-0.3,2.9-0.6c1-0.1,1.9-0.5,2.8-0.7c0.4-0.1,0.8-0.2,1.2-0.3c0.4-0.1,0.8-0.1,1.1-0.2    c0.7-0.2,1.2-0.3,1.6-0.6c0.1-0.1,0.2-0.1,0.3-0.2c0.1-0.1,0.1-0.1,0.2-0.1c0.1-0.1,0.2-0.1,0.2-0.1l0.2,0.1c0,0,0,0.1,0,0.2    c0,0.2-0.1,0.4-0.2,0.6c-0.3,0.5-0.8,1.1-1.5,1.6c-0.4,0.2-0.8,0.4-1.2,0.6c-0.4,0.1-0.9,0.3-1.3,0.4c-0.9,0.2-2,0.2-3,0.2    c-1,0.1-2,0.1-2.9,0.1c-0.5,0-0.9,0-1.4,0c-0.4,0-0.9,0-1.3,0c-0.8,0-1.4-0.1-1.9-0.2c-0.5-0.1-0.8-0.2-0.8-0.2L276.2,62.5z"/>
	</g>
	<g>
		<path fill="#FFFFFF" d="M292.6,83.4c0,0,0-0.7,0.2-1.8c0-0.3,0.1-0.6,0.1-0.9c0-0.3,0.1-0.6,0.2-1c0.2-0.7,0.4-1.4,0.6-2.2    c0.3-0.7,0.5-1.5,0.9-2.1c0.2-0.3,0.4-0.6,0.7-0.8c0.3-0.2,0.5-0.4,0.7-0.6c0.5-0.4,1-0.6,1.3-0.7c0.3-0.1,0.5-0.2,0.5-0.2    l0.1,0.2c0,0,0,0.2-0.1,0.6c-0.1,0.3-0.3,0.8-0.5,1.2c-0.1,0.2-0.2,0.5-0.4,0.7c-0.2,0.2-0.3,0.5-0.4,0.8c-0.4,0.5-0.8,1-1.2,1.6    c-0.3,0.6-0.6,1.2-1,1.8c-0.1,0.3-0.3,0.6-0.4,0.9c-0.1,0.3-0.2,0.6-0.3,0.8c-0.4,1-0.7,1.7-0.7,1.7L292.6,83.4z"/>
	</g>
	<g>
		<path fill="#FFFFFF" d="M302.3,90.9c0,0-0.4-0.3-1-0.8c-0.1-0.1-0.3-0.3-0.5-0.4c-0.2-0.1-0.3-0.4-0.4-0.5    c-0.3-0.4-0.6-0.8-0.8-1.3c-0.2-0.5-0.5-1-0.5-1.5c0-0.3-0.1-0.5,0-0.7c0.1-0.2,0.2-0.5,0.2-0.6c0.2-0.4,0.5-0.7,0.6-0.9    c0.2-0.2,0.3-0.3,0.3-0.3l0.2,0c0,0,0.1,0.1,0.2,0.3c0.1,0.2,0.2,0.5,0.3,0.8c0,0.2,0.1,0.3,0.1,0.5c0,0.2,0.1,0.4,0.1,0.6    c0,0.4,0,0.8,0,1.3c0.1,0.4,0.2,0.8,0.3,1.3c0.1,0.2,0.1,0.4,0.2,0.6c0.1,0.2,0.2,0.4,0.3,0.5c0.3,0.6,0.5,1.1,0.5,1.1L302.3,90.9    z"/>
	</g>
	<g>
		<path fill="#FFFFFF" d="M288.9,93.1c0,0,0-0.2,0-0.4c0-0.3,0-0.6,0-1.1c0-0.2,0-0.4,0-0.7c0-0.2,0-0.5,0-0.7c0-0.5,0-1.1-0.1-1.6    c0-0.5-0.1-1-0.2-1.4c0-0.1,0-0.2,0-0.3c0-0.1,0-0.2,0-0.3c0-0.1,0-0.2,0-0.3c0-0.1,0-0.2,0-0.3c0-0.4,0.1-0.8,0-1    c0-0.1-0.1-0.3-0.1-0.3c0,0,0,0,0,0l0.1-0.2c0,0,0-0.1,0.1-0.1c0.1,0,0.1,0,0.2,0c0.1,0,0.2,0.1,0.3,0.1c0.2,0.1,0.3,0.2,0.5,0.4    c0.1,0.1,0.3,0.3,0.5,0.5c0.1,0.2,0.3,0.5,0.3,0.8c0.1,0.3,0.2,0.6,0.2,0.9c0,0.6-0.2,1.2-0.4,1.7c-0.1,0.6-0.2,1.1-0.4,1.6    c-0.1,0.2-0.2,0.5-0.3,0.7c-0.1,0.2-0.1,0.5-0.2,0.7c-0.1,0.4-0.3,0.8-0.4,1c-0.1,0.2-0.2,0.4-0.2,0.4L288.9,93.1z"/>
	</g>
	<g>
		<path fill="#FFFFFF" d="M302.2,99.7c0,0-0.5-0.2-1.3-0.6c-0.2-0.1-0.4-0.2-0.6-0.3c-0.2-0.1-0.4-0.3-0.6-0.5    c-0.4-0.4-0.9-0.8-1.3-1.2c-0.3-0.5-0.8-0.9-1.1-1.4c-0.1-0.3-0.3-0.5-0.3-0.8c-0.1-0.3-0.1-0.5-0.1-0.8c-0.1-0.9,0.2-1.7,0.2-1.7    l0.2-0.1c0,0,0.6,0.4,1.2,1c0.1,0.2,0.3,0.3,0.4,0.6c0.1,0.2,0.3,0.4,0.4,0.6c0.2,0.4,0.3,1,0.6,1.5c0.3,0.5,0.6,0.9,0.8,1.3    c0.1,0.2,0.2,0.4,0.4,0.6c0.2,0.2,0.3,0.3,0.5,0.5c0.6,0.6,0.9,1,0.9,1L302.2,99.7z"/>
	</g>
	<g>
		<path fill="#FFFFFF" d="M319,107.6c0,0-0.1-0.1-0.2-0.2c-0.1,0-0.1-0.1-0.2-0.1c-0.1,0-0.2-0.1-0.3-0.1c-0.4-0.2-0.9-0.3-1.5-0.5    c-0.3-0.1-0.6-0.2-1-0.3c-0.3-0.1-0.7-0.3-1.1-0.4c-0.8-0.3-1.6-0.6-2.4-0.9c-0.8-0.4-1.6-0.7-2.3-1.1c-0.3-0.2-0.7-0.4-1-0.7    c-0.3-0.2-0.5-0.5-0.8-0.7c-0.5-0.5-0.8-0.9-1-1.2c-0.1-0.2-0.2-0.3-0.3-0.4c-0.1-0.1-0.1-0.1-0.1-0.1l0.1-0.2c0,0,0.1,0,0.2,0    c0.1,0,0.3,0,0.5,0.1c0.4,0.1,1,0.2,1.5,0.5c0.3,0.1,0.6,0.2,0.9,0.4c0.3,0.2,0.7,0.3,1,0.5c0.7,0.4,1.3,1,1.9,1.4    c0.7,0.4,1.4,0.8,2,1.3c0.3,0.2,0.6,0.4,1,0.6c0.3,0.2,0.6,0.4,0.9,0.5c0.6,0.3,1,0.6,1.4,0.9c0.2,0.1,0.3,0.3,0.4,0.4    c0,0,0.1,0.1,0.1,0.1c0,0,0.1,0.1,0.1,0.1c0,0.1,0.1,0.1,0.1,0.1C319.2,107.4,319,107.6,319,107.6z"/>
	</g>
	<g>
		<path fill="#FFFFFF" d="M315.5,100.4c0,0-0.6-0.1-1.6-0.4c-0.2-0.1-0.5-0.1-0.8-0.2c-0.3-0.1-0.5-0.2-0.8-0.3    c-0.6-0.3-1.2-0.5-1.8-0.8c-0.5-0.4-1.2-0.6-1.7-1c-0.2-0.2-0.5-0.4-0.6-0.6c-0.2-0.2-0.3-0.5-0.5-0.7c-0.5-0.9-0.7-1.7-0.7-1.7    l0.1-0.2c0,0,0.8,0.1,1.7,0.5c0.2,0.1,0.4,0.2,0.7,0.4c0.2,0.2,0.5,0.3,0.7,0.5c0.4,0.4,0.8,0.9,1.3,1.3c0.5,0.4,1,0.8,1.4,1.1    c0.2,0.2,0.4,0.4,0.7,0.5c0.2,0.2,0.4,0.3,0.7,0.4c0.8,0.5,1.3,0.9,1.3,0.9L315.5,100.4z"/>
	</g>
	<g>
		<path fill="#FFFFFF" d="M325.6,110.9c0,0-0.1-0.1-0.2-0.2c-0.2-0.1-0.3-0.2-0.6-0.4c-0.1-0.1-0.3-0.1-0.4-0.2    c-0.1-0.1-0.2-0.2-0.4-0.2c-0.2-0.2-0.5-0.3-0.8-0.5c-0.2-0.2-0.5-0.4-0.6-0.6c-0.1-0.1-0.1-0.2-0.1-0.4c0-0.2,0-0.3,0.1-0.5    c0.1-0.6,0.5-1.1,0.5-1.1l0.2-0.1c0,0,0.1,0,0.3,0.1c0.2,0.1,0.3,0.1,0.5,0.3c0.1,0.1,0.2,0.1,0.2,0.2c0.1,0.1,0.2,0.2,0.2,0.3    c0.1,0.2,0.1,0.6,0.2,0.8c0.1,0.3,0.3,0.5,0.4,0.8c0.1,0.1,0.1,0.3,0.2,0.4c0.1,0.1,0.1,0.2,0.2,0.3c0.1,0.2,0.2,0.4,0.3,0.6    c0.1,0.1,0.1,0.2,0.1,0.2L325.6,110.9z"/>
	</g>
	<g>
		<path fill="#FFFFFF" d="M335.4,117.5c0,0-0.2,0-0.4,0.1c-0.3,0-0.7,0.1-1.1,0.1c-0.2,0-0.5,0-0.8,0c-0.3,0-0.6-0.1-0.9-0.1    c-0.6-0.1-1.3-0.2-1.9-0.4c-0.6-0.3-1.3-0.4-1.8-0.8c-0.3-0.2-0.5-0.3-0.7-0.6c-0.2-0.2-0.3-0.5-0.5-0.7c-0.6-0.9-0.7-1.6-0.7-1.6    l0.1-0.2c0,0,0.2,0,0.5,0.1c0.3,0.1,0.7,0.2,1.1,0.4c0.2,0.1,0.4,0.2,0.6,0.3c0.2,0.1,0.5,0.2,0.7,0.4c0.4,0.3,0.8,0.7,1.3,1.1    c0.5,0.3,1,0.5,1.5,0.8c0.3,0.1,0.5,0.3,0.7,0.3c0.2,0.1,0.5,0.1,0.7,0.2c0.9,0.2,1.5,0.3,1.5,0.3L335.4,117.5z"/>
	</g>
	<g>
		<path fill="#FFFFFF" d="M276.3,40.4c0,0,0.3-0.5,0.8-1.2c0.1-0.2,0.3-0.4,0.4-0.6c0.1-0.2,0.3-0.4,0.5-0.6    c0.4-0.4,0.8-0.8,1.2-1.2c0.5-0.3,0.9-0.8,1.4-1.1c0.2-0.1,0.5-0.3,0.7-0.3c0.3,0,0.5-0.1,0.8-0.1c0.9,0,1.6,0.2,1.6,0.2l0.1,0.2    c0,0-0.4,0.6-1,1.1c-0.2,0.1-0.3,0.3-0.5,0.4c-0.2,0.1-0.4,0.3-0.6,0.4c-0.4,0.2-1,0.3-1.5,0.5c-0.5,0.3-0.9,0.5-1.4,0.8    c-0.2,0.1-0.4,0.2-0.7,0.4c-0.2,0.1-0.4,0.3-0.6,0.4c-0.7,0.5-1.2,0.8-1.2,0.8L276.3,40.4z"/>
	</g>
	<g>
		<path fill="#FFFFFF" d="M281.8,73.7c0,0,0-0.2,0.1-0.4c0-0.3,0.1-0.7,0.2-1.1c0.1-0.2,0.1-0.5,0.2-0.7c0.1-0.3,0.3-0.5,0.4-0.8    c0.2-0.3,0.3-0.5,0.5-0.8c0.2-0.3,0.4-0.5,0.6-0.8c0.2-0.2,0.5-0.5,0.7-0.7c0.2-0.2,0.5-0.4,0.8-0.6c0.3-0.2,0.6-0.3,0.9-0.4    c0.1,0,0.3-0.1,0.4-0.1c0.1,0,0.2,0,0.4,0c0.3,0,0.5,0,0.8,0c0.1,0,0.2,0,0.3,0.1c0.1,0,0.2,0.1,0.2,0.1c0.1,0.1,0.2,0.2,0.2,0.3    c0,0.1,0.1,0.1,0.1,0.1l-0.1,0.2c0,0-0.2,0-0.3,0.2c-0.1,0.1-0.1,0.1-0.2,0.2c-0.1,0.1-0.2,0.2-0.4,0.4c-0.1,0.1-0.2,0.1-0.3,0.2    c-0.1,0.1-0.2,0.1-0.3,0.2c-0.2,0.1-0.4,0.3-0.6,0.4c-0.2,0.1-0.5,0.2-0.7,0.3c-0.3,0.1-0.5,0.2-0.8,0.4c-0.2,0.2-0.4,0.3-0.7,0.5    c-0.2,0.2-0.4,0.4-0.6,0.5c-0.2,0.2-0.4,0.4-0.5,0.6c-0.2,0.2-0.3,0.4-0.4,0.6c-0.1,0.2-0.2,0.3-0.3,0.5c-0.1,0.2-0.2,0.3-0.2,0.4    c-0.1,0.2-0.2,0.3-0.2,0.3L281.8,73.7z"/>
	</g>
	<g>
		<path fill="#FFFFFF" d="M278.1,54.4c0,0,0.2-0.1,0.5-0.3c0.3-0.2,0.7-0.5,1.2-0.8c0.2-0.2,0.5-0.4,0.8-0.6    c0.3-0.2,0.6-0.4,0.9-0.6c0.6-0.4,1.3-0.9,1.8-1.4c0.6-0.5,1.1-1,1.5-1.5c0.1-0.1,0.2-0.2,0.3-0.4c0-0.1,0.1-0.1,0.2-0.2    c0-0.1,0.1-0.1,0.2-0.2c0.1-0.1,0.2-0.2,0.3-0.3c0.1-0.1,0.2-0.2,0.3-0.3c0.2-0.2,0.3-0.4,0.5-0.6c0.2-0.2,0.3-0.4,0.4-0.5    c0.2-0.3,0.3-0.5,0.3-0.5l0.2,0c0,0,0.1,0.2,0.2,0.6c0.1,0.2,0.1,0.5,0.1,0.8c0,0.1,0,0.3,0,0.5c0,0.2-0.1,0.3-0.1,0.5    c-0.1,0.4-0.2,0.7-0.4,1.1c-0.1,0.2-0.2,0.3-0.3,0.5c-0.1,0.2-0.2,0.4-0.4,0.5c-0.6,0.6-1.4,1-2.1,1.4c-0.7,0.4-1.4,0.8-2.1,1.1    c-0.4,0.1-0.7,0.2-1,0.4c-0.3,0.1-0.6,0.3-0.9,0.4c-0.6,0.2-1.1,0.4-1.4,0.5c-0.3,0.1-0.5,0.2-0.5,0.2L278.1,54.4z"/>
	</g>
	<g>
		<path fill="#FFFFFF" d="M261.7,40.5c0,0,0.4-0.5,0.9-1.1c0.1-0.2,0.3-0.3,0.5-0.5c0.2-0.2,0.4-0.3,0.6-0.5    c0.4-0.3,0.9-0.7,1.5-0.9c0.5-0.2,1.1-0.5,1.7-0.6c0.3,0,0.6-0.1,0.9,0c0.3,0.1,0.5,0.2,0.8,0.3c0.5,0.3,0.8,0.6,0.9,0.9    c0.1,0.3,0.1,0.4,0.1,0.4l-0.1,0.2c0,0-0.2,0-0.3,0c-0.1,0-0.2,0.1-0.3,0.1c-0.1,0-0.3,0.1-0.4,0.1c-0.2,0-0.3,0.1-0.5,0.1    c-0.1,0-0.2,0-0.3,0c-0.1,0-0.2,0.1-0.3,0.1c-0.4,0-0.9,0-1.4,0c-0.5,0.1-0.9,0.3-1.4,0.4c-0.2,0.1-0.5,0.1-0.7,0.2    c-0.2,0.1-0.4,0.2-0.6,0.3c-0.7,0.4-1.2,0.6-1.2,0.6L261.7,40.5z"/>
	</g>
	<g>
		<path fill="#FFFFFF" d="M257.2,49.2c0,0,0.3,0.1,0.7,0.2c0.2,0,0.5,0.1,0.8,0.1c0.2,0,0.3,0,0.5,0c0.2,0,0.4,0,0.5,0    c0.2,0,0.4,0,0.6,0c0.2,0,0.4-0.1,0.6-0.1c0.4-0.1,0.9-0.1,1.3-0.2c0.9-0.2,1.9-0.5,2.8-0.9c0.9-0.3,1.8-0.9,2.6-1.3    c0.4-0.2,0.8-0.5,1.2-0.6c0.4-0.2,0.8-0.3,1.1-0.4c0.7-0.3,1.2-0.5,1.6-0.8c0.1-0.1,0.2-0.1,0.2-0.2c0.1-0.1,0.1-0.1,0.2-0.2    c0.1-0.1,0.1-0.2,0.1-0.2l0.2,0.1c0,0,0,0.1,0,0.3c0,0.1,0,0.2,0,0.3c0,0.1-0.1,0.3-0.1,0.4c-0.1,0.3-0.3,0.6-0.5,0.9    c-0.2,0.3-0.5,0.6-0.8,0.9c-0.3,0.3-0.7,0.6-1,0.8c-0.2,0.1-0.4,0.2-0.6,0.4c-0.2,0.1-0.4,0.3-0.6,0.4c-0.9,0.4-1.9,0.7-2.9,0.9    c-1,0.3-2,0.5-3,0.5c-0.5,0-1,0-1.5,0c-0.2,0-0.5,0-0.7,0c-0.2,0-0.4,0-0.7-0.1c-0.8-0.1-1.5-0.4-2-0.5c-0.5-0.2-0.7-0.4-0.7-0.4    L257.2,49.2z"/>
	</g>
	<g>
		<path fill="#FFFFFF" d="M268.4,78.7c0,0,0.2-0.1,0.5-0.2c0.3-0.2,0.7-0.4,1.1-0.7c0.2-0.2,0.5-0.3,0.7-0.5    c0.2-0.2,0.5-0.3,0.8-0.5c0.6-0.4,1.2-0.8,1.7-1.2c0.6-0.4,1.1-0.9,1.5-1.2c0.2-0.2,0.4-0.4,0.7-0.5c0.2-0.1,0.4-0.3,0.6-0.4    c0.4-0.3,0.7-0.6,0.9-0.9c0.1-0.1,0.2-0.3,0.2-0.3c0.1-0.1,0.1-0.1,0.1-0.1l0.2,0c0,0,0,0.1,0.1,0.2c0.1,0.1,0.1,0.3,0.2,0.5    c0.1,0.4,0.1,1.1-0.2,1.7c-0.1,0.3-0.3,0.6-0.6,0.9c-0.2,0.3-0.5,0.5-0.8,0.8c-0.6,0.4-1.3,0.7-2,0.9c-0.6,0.3-1.3,0.6-1.9,0.8    c-0.3,0.1-0.6,0.2-0.9,0.3c-0.3,0.1-0.6,0.2-0.9,0.3c-0.5,0.2-1,0.3-1.3,0.4c-0.3,0.1-0.5,0.1-0.5,0.1L268.4,78.7z"/>
	</g>
	<g>
		<path fill="#FFFFFF" d="M268.9,92.2c0,0,0.1-0.7,0.2-1.6c0-0.2,0.1-0.5,0.1-0.8c0-0.3,0.2-0.5,0.2-0.8c0.2-0.6,0.4-1.2,0.7-1.8    c0.3-0.6,0.6-1.2,1.1-1.7c0.2-0.2,0.5-0.5,0.8-0.6c0.3-0.1,0.6-0.2,0.8-0.3c0.3-0.1,0.5-0.1,0.8-0.1c0.2,0,0.4,0,0.6,0.1    c0.3,0.1,0.5,0.2,0.5,0.2l0,0.2c0,0-0.1,0.1-0.3,0.3c-0.1,0.1-0.2,0.2-0.3,0.3c-0.1,0.1-0.2,0.3-0.4,0.4c-0.1,0.2-0.3,0.3-0.4,0.5    c-0.2,0.2-0.3,0.3-0.5,0.5c-0.3,0.3-0.8,0.7-1.2,1.1c-0.3,0.4-0.6,0.9-1,1.4c-0.2,0.2-0.3,0.4-0.4,0.7c-0.1,0.2-0.2,0.5-0.3,0.7    c-0.4,0.8-0.7,1.4-0.7,1.4L268.9,92.2z"/>
	</g>
	<g>
		<path fill="#FFFFFF" d="M262,95c0,0,0-0.2,0.1-0.6c0.1-0.4,0.2-0.9,0.3-1.5c0.1-0.3,0.1-0.6,0.1-1c0-0.4,0.2-0.7,0.2-1.1    c0.2-0.8,0.3-1.6,0.5-2.5c0.2-0.8,0.3-1.7,0.5-2.5c0.1-0.4,0.2-0.8,0.5-1.1c0.2-0.3,0.4-0.6,0.6-0.9c0.4-0.6,0.9-0.9,1.2-1.1    c0.2-0.1,0.3-0.1,0.4-0.2c0.1,0,0.1,0,0.1,0l0.1,0.2c0,0,0,0.1,0,0.2c0,0.1-0.1,0.2-0.1,0.4c-0.1,0.3-0.1,0.8-0.3,1.4    c-0.1,0.3-0.1,0.6-0.2,0.9c-0.1,0.3-0.2,0.7-0.3,1c-0.2,0.7-0.7,1.5-1,2.2c-0.3,0.8-0.5,1.6-0.9,2.3c-0.2,0.4-0.3,0.7-0.5,1.1    c-0.1,0.3-0.3,0.7-0.4,1c-0.1,0.3-0.3,0.6-0.4,0.8c-0.1,0.2-0.2,0.5-0.3,0.6c-0.2,0.3-0.3,0.5-0.3,0.5L262,95z"/>
	</g>
	<g>
		<path fill="#FFFFFF" d="M265.6,101.8c0,0-0.1-0.5-0.3-1.4c0-0.2-0.1-0.4-0.1-0.7c0-0.2,0-0.5,0-0.7c0-0.5,0.1-1.1,0.1-1.7    c0.2-0.5,0.2-1.1,0.5-1.6c0.1-0.2,0.3-0.5,0.5-0.6c0.2-0.2,0.4-0.3,0.6-0.4c0.2-0.1,0.4-0.2,0.6-0.2c0.2-0.1,0.4-0.1,0.5-0.1    c0.3,0,0.5,0,0.5,0l0.1,0.2c0,0,0,0.2-0.1,0.4c0,0.2-0.2,0.5-0.3,0.9c-0.1,0.2-0.1,0.3-0.2,0.5c-0.1,0.2-0.2,0.4-0.3,0.6    c-0.2,0.4-0.6,0.7-0.8,1.1c-0.2,0.4-0.4,0.9-0.5,1.3c-0.1,0.2-0.2,0.4-0.2,0.6c0,0.2-0.1,0.4-0.1,0.6c-0.1,0.8-0.2,1.3-0.2,1.3    L265.6,101.8z"/>
	</g>
	<g>
		<path fill="#FFFFFF" d="M251.4,113.5c0,0,0.1,0,0.2-0.1c0.1-0.1,0.2-0.2,0.4-0.3c0.3-0.3,0.6-0.7,1-1.1c0.2-0.2,0.4-0.5,0.6-0.8    c0.2-0.3,0.5-0.5,0.8-0.8c0.6-0.6,1.2-1.2,1.8-1.8c0.6-0.5,1.2-1.2,1.8-1.7c0.3-0.2,0.6-0.5,0.9-0.6c0.3-0.2,0.6-0.3,0.9-0.5    c0.5-0.3,1-0.5,1.3-0.7c0.2-0.1,0.3-0.2,0.3-0.3c0.1-0.1,0.1-0.2,0.1-0.2c0,0,0.2,0,0.2,0c0,0,0,0.1,0.1,0.3c0,0.1,0,0.2,0,0.3    c0,0.1,0,0.2-0.1,0.4c-0.1,0.5-0.4,1.1-0.8,1.6c-0.2,0.3-0.4,0.5-0.7,0.8c-0.3,0.2-0.5,0.5-0.8,0.8c-0.6,0.5-1.4,0.8-2.1,1.3    c-0.7,0.5-1.3,0.9-2,1.3c-0.3,0.2-0.7,0.4-0.9,0.6c-0.3,0.2-0.6,0.4-0.8,0.6c-0.5,0.4-1,0.7-1.3,0.9c-0.2,0.1-0.3,0.2-0.4,0.2    c-0.1,0.1-0.2,0.1-0.2,0.1C251.5,113.6,251.5,113.6,251.4,113.5C251.4,113.5,251.4,113.5,251.4,113.5z"/>
	</g>
	<g>
		<path fill="#FFFFFF" d="M243.2,117.7c0,0,0-0.6,0.2-1.6c0-0.2,0.1-0.5,0.1-0.8c0-0.3,0.2-0.5,0.2-0.8c0.2-0.6,0.4-1.2,0.7-1.8    c0.4-0.5,0.7-1.2,1.2-1.6c0.2-0.2,0.5-0.4,0.8-0.5c0.3-0.1,0.6-0.2,0.9-0.2c0.3,0,0.5,0,0.8,0c0.2,0,0.4,0.1,0.6,0.2    c0.3,0.1,0.4,0.3,0.4,0.3l0,0.2c0,0-0.1,0.1-0.3,0.3c-0.1,0.1-0.2,0.2-0.3,0.3c-0.1,0.1-0.2,0.2-0.4,0.3c-0.1,0.1-0.3,0.3-0.4,0.4    c-0.2,0.1-0.3,0.3-0.5,0.5c-0.4,0.3-0.9,0.6-1.3,1c-0.4,0.4-0.7,0.9-1,1.3c-0.2,0.2-0.3,0.4-0.4,0.7c-0.1,0.2-0.2,0.4-0.3,0.6    c-0.4,0.8-0.7,1.4-0.7,1.4L243.2,117.7z"/>
	</g>
	<g>
		<path fill="#FFFFFF" d="M257.4,81.9c0,0,0.1-0.1,0.3-0.3c0.2-0.2,0.5-0.5,0.8-0.8c0.2-0.2,0.3-0.3,0.5-0.5    c0.2-0.2,0.4-0.3,0.6-0.5c0.4-0.4,0.8-0.8,1.1-1.2c0.4-0.4,0.6-0.8,0.8-1.1c0.1-0.1,0.2-0.3,0.3-0.4c0.1-0.1,0.2-0.2,0.4-0.3    c0.2-0.2,0.3-0.6,0.4-0.9c0.1-0.3,0.1-0.5,0.1-0.5l0.2-0.1c0,0,0,0,0.1,0.1c0.1,0,0.2,0.1,0.3,0.2c0.3,0.2,0.6,0.7,0.6,1.4    c0,0.3,0,0.7-0.2,1c-0.1,0.3-0.3,0.6-0.5,0.9c-0.4,0.5-1,0.8-1.5,1.1c-0.5,0.3-1,0.7-1.5,0.9c-0.2,0.1-0.5,0.2-0.7,0.3    c-0.2,0.1-0.4,0.2-0.6,0.4c-0.4,0.2-0.7,0.4-1,0.5c-0.3,0.1-0.4,0.1-0.4,0.1L257.4,81.9z"/>
	</g>
	<g>
		<path fill="#FFFFFF" d="M242.8,77.5c0,0,0.1-0.1,0.3-0.3c0.1-0.1,0.3-0.2,0.4-0.4c0.2-0.1,0.4-0.3,0.7-0.4    c0.1-0.1,0.3-0.1,0.4-0.2c0.1-0.1,0.3-0.1,0.4-0.2c0.3-0.1,0.7-0.2,1.1-0.3c0.8-0.2,1.6-0.3,2.3-0.4c0.8-0.1,1.5-0.3,2.1-0.4    c0.3-0.1,0.6-0.2,0.9-0.2c0.3,0,0.6-0.1,0.8-0.1c0.5-0.1,0.9-0.2,1.2-0.4c0.1-0.1,0.3-0.2,0.3-0.3c0.1-0.1,0.1-0.1,0.1-0.1    l0.2,0.1c0,0,0,0.1,0,0.2c0,0.1,0,0.3-0.1,0.6c-0.1,0.5-0.5,1.1-1.1,1.5c-0.3,0.2-0.6,0.4-1,0.5c-0.4,0.1-0.7,0.3-1.1,0.4    c-0.8,0.2-1.6,0-2.4-0.1c-0.8,0-1.5,0-2.2-0.1c-0.3,0-0.7,0-1,0c-0.3,0-0.6,0.1-0.9,0.1c-0.5,0.1-0.9,0.3-1.2,0.4    c-0.3,0.1-0.4,0.2-0.4,0.2L242.8,77.5z"/>
	</g>
	<g>
		<path fill="#FFFFFF" d="M258.5,69.6c0,0,0.2,0,0.5-0.1c0.3-0.1,0.7-0.2,1.2-0.3c0.2-0.1,0.5-0.2,0.8-0.3c0.3-0.1,0.6-0.1,0.9-0.2    c0.6-0.1,1.3-0.3,2-0.5c0.7-0.1,1.3-0.3,1.9-0.4c0.3,0,0.6-0.1,0.9,0c0.3,0,0.5,0.1,0.8,0.1c0.5,0,0.9,0.1,1.2,0.1    c0.2,0,0.3,0,0.4,0c0.1,0,0.2,0,0.2,0l0.1,0.2c0,0,0,0.1-0.1,0.2c0,0.1-0.1,0.2-0.3,0.4c-0.3,0.3-0.7,0.7-1.2,0.9    c-0.3,0.1-0.5,0.2-0.8,0.3c-0.3,0.1-0.6,0.2-0.9,0.2c-0.6,0.1-1.3-0.1-2-0.1c-0.7,0-1.3,0-1.9,0c-0.3,0-0.6,0-0.9,0    c-0.3,0-0.6,0-0.8,0c-0.5,0-1,0-1.3-0.1c-0.3,0-0.5-0.1-0.5-0.1L258.5,69.6z"/>
	</g>
	<g>
		<path fill="#FFFFFF" d="M254,63.3c0,0,1.2,0,2.9-0.3c0.4-0.1,0.9-0.1,1.4-0.2c0.5-0.1,1-0.1,1.6-0.2c1.1-0.1,2.3-0.3,3.5-0.6    c1.2-0.2,2.3-0.6,3.3-0.9c0.5-0.1,1-0.3,1.5-0.4c0.5-0.1,0.9-0.2,1.3-0.4c0.8-0.3,1.5-0.5,1.9-0.8c0.2-0.1,0.4-0.2,0.5-0.3    c0.1-0.1,0.2-0.1,0.2-0.1l0.1,0.2c0,0,0,0.1-0.1,0.2c-0.1,0.2-0.2,0.4-0.4,0.6c-0.3,0.5-0.9,1.2-1.7,1.7c-0.4,0.3-0.8,0.5-1.3,0.8    c-0.5,0.2-1,0.4-1.6,0.6c-1.1,0.3-2.3,0.3-3.5,0.4c-1.2,0.1-2.3,0.2-3.5,0.1c-0.6,0-1.1-0.1-1.6-0.1c-0.5,0-1,0-1.5,0    c-1.8-0.1-3.1-0.3-3.1-0.3L254,63.3z"/>
	</g>
	<g>
		<path fill="#FFFFFF" d="M239.6,59c0,0,0.2,0,0.7-0.1c0.2,0,0.5-0.1,0.8-0.1c0.3-0.1,0.6-0.1,1-0.2c0.2,0,0.4-0.1,0.5-0.1    c0.2-0.1,0.4-0.1,0.6-0.2c0.4-0.1,0.8-0.2,1.3-0.3c0.4-0.1,0.9-0.2,1.4-0.4c0.5-0.1,1-0.3,1.4-0.4c1-0.2,1.9-0.5,2.9-0.7    c0.5-0.1,0.9-0.1,1.3-0.1c0.4,0,0.9,0,1.3,0.1c0.8,0.1,1.4,0.3,1.8,0.6c0.2,0.1,0.3,0.2,0.4,0.3c0.1,0.1,0.1,0.1,0.1,0.1l-0.1,0.2    c0,0-0.1,0-0.2,0c-0.1,0-0.3,0-0.5,0.1c-0.4,0.1-0.9,0.2-1.6,0.4c-0.3,0.1-0.7,0.2-1.1,0.3c-0.4,0.1-0.8,0.2-1.3,0.3    c-0.9,0.1-1.8,0.1-2.8,0.2c-0.5,0.1-0.9,0.1-1.4,0.2c-0.5,0.1-0.9,0.1-1.4,0.1c-0.5,0-0.9,0-1.3,0.1c-0.4,0-0.8,0.1-1.2,0.1    c-0.4,0-0.7,0-1,0c-0.3,0-0.6,0-0.8,0c-0.4,0-0.7,0-0.7,0L239.6,59z"/>
	</g>
	<g>
		<path fill="#FFFFFF" d="M236.8,71c0,0,0.1-0.2,0.4-0.6c0.2-0.4,0.6-0.9,1-1.5c0.2-0.3,0.5-0.6,0.8-1c0.3-0.3,0.7-0.7,1-1    c0.8-0.7,1.7-1.3,2.8-1.8l0.8-0.3c0.3-0.1,0.6-0.2,0.8-0.2c0.3-0.1,0.6-0.1,0.9-0.2c0.3,0,0.6-0.1,0.9-0.1c0.4,0,0.6,0.1,0.9,0.1    c0.3,0.1,0.5,0.1,0.7,0.2c0.4,0.2,0.8,0.4,1.2,0.6c0.7,0.4,1.2,0.7,1.6,1c0.4,0.3,0.6,0.4,0.6,0.4l-0.1,0.2c0,0-0.1,0-0.2,0    c-0.1,0-0.2,0-0.3,0c-0.1,0-0.2,0-0.3,0c-0.5,0-1.2,0-2-0.1c-0.4,0-0.8-0.1-1.2-0.2c-0.2,0-0.4-0.1-0.6-0.1c-0.1,0-0.2,0-0.3,0    c-0.1,0-0.2,0-0.2,0c-0.3,0-0.8,0-1.2,0c-0.4,0-0.9,0.1-1.4,0.2c-0.9,0.3-1.7,0.7-2.5,1.1c-0.4,0.2-0.8,0.4-1.1,0.7    c-0.3,0.3-0.6,0.5-0.9,0.8c-0.6,0.5-1,0.9-1.3,1.3c-0.3,0.3-0.5,0.5-0.5,0.5L236.8,71z"/>
	</g>
	<g>
		<path fill="#FFFFFF" d="M249.5,42.5c0,0,0.2,0.1,0.4,0.1c0.1,0,0.3,0.1,0.5,0.1c0.2,0,0.4,0.1,0.6,0.1c0.2,0,0.5,0.1,0.7,0.1    c0.2,0,0.5,0.1,0.8,0.1c0.5,0.1,1.1,0.1,1.6,0.1c0.5,0,1-0.1,1.4-0.2c0.2,0,0.4,0,0.6,0c0.1,0,0.2,0,0.3,0.1c0.1,0,0.2,0,0.3,0    c0.2,0,0.4,0,0.6,0.1c0.2,0,0.4,0,0.5,0c0.3,0,0.5,0,0.5,0l0.1,0.2c0,0-0.1,0.2-0.3,0.4c-0.1,0.1-0.2,0.3-0.4,0.4    c-0.2,0.2-0.3,0.3-0.6,0.4c-0.2,0.1-0.5,0.2-0.7,0.3c-0.3,0.1-0.6,0.2-0.9,0.2c-0.6,0-1.2-0.2-1.8-0.4c-0.6-0.1-1.2-0.3-1.7-0.6    c-0.3-0.1-0.5-0.3-0.7-0.4c-0.2-0.1-0.5-0.2-0.7-0.4c-0.2-0.1-0.4-0.2-0.6-0.3c-0.2-0.1-0.3-0.2-0.4-0.3c-0.2-0.2-0.3-0.3-0.3-0.3    L249.5,42.5z"/>
	</g>
	<g>
		<path fill="#FFFFFF" d="M230.9,45.7c0,0,0.3,0,0.9,0c0.6,0,1.5,0,2.5,0.1c0.5,0,1.1,0,1.7,0c0.6,0,1.3,0.1,2,0.2    c1.4,0.1,2.9,0.2,4.4,0.3c1.5,0.2,3,0.2,4.4,0.3c0.7,0.1,1.4,0.1,2,0.2c0.6,0.1,1.2,0.2,1.7,0.3c1.1,0.1,1.9,0.2,2.5,0.1    c0.3,0,0.6-0.1,0.7-0.2c0.2-0.1,0.3-0.1,0.3-0.1s0,0.1,0,0.1c0,0.1,0,0.1,0,0.1s-0.1,0.1-0.2,0.3c-0.2,0.2-0.4,0.4-0.8,0.6    c-0.7,0.4-1.7,0.7-2.8,0.8c-0.6,0.1-1.2,0.1-1.8,0.1c-0.6,0-1.3,0-2-0.1c-1.3-0.1-2.7-0.5-4.1-0.8c-1.4-0.2-2.8-0.5-4.1-0.7    c-0.7-0.1-1.3-0.3-1.9-0.4c-0.6-0.1-1.2-0.2-1.8-0.3c-1.1-0.2-2-0.3-2.6-0.5c-0.6-0.1-1-0.2-1-0.2L230.9,45.7z"/>
	</g>
	<g>
		<path fill="#FFFFFF" d="M228.8,50.5c0,0,0.2,0.1,0.6,0.3c0.4,0.2,0.9,0.4,1.4,0.5c0.3,0.1,0.6,0.1,0.9,0.1c0.3,0,0.7,0.1,1.1,0.2    c0.7,0.1,1.5,0.2,2.3,0.2c0.8,0.1,1.6,0.1,2.4,0.3c0.4,0.1,0.7,0.2,1.1,0.3c0.3,0.1,0.6,0.3,0.9,0.5c0.5,0.3,1,0.7,1.2,0.9    c0.3,0.3,0.4,0.4,0.4,0.4l-0.1,0.2c0,0-0.2,0-0.6,0.1c-0.4,0-0.9,0-1.5,0c-0.3,0-0.6,0-0.9-0.1c-0.3-0.1-0.7-0.1-1-0.2    c-0.7-0.2-1.4-0.5-2.1-0.8c-0.7-0.2-1.5-0.4-2.2-0.7c-0.4-0.1-0.7-0.3-1-0.4c-0.3-0.1-0.7-0.3-1-0.4c-0.3-0.1-0.6-0.3-0.8-0.4    c-0.2-0.2-0.4-0.3-0.6-0.4c-0.3-0.3-0.5-0.5-0.5-0.5L228.8,50.5z"/>
	</g>
	<g>
		<path fill="#FFFFFF" d="M216,42.5c0,0,0.2,0,0.5,0c0.3,0,0.9,0.1,1.5,0.2c0.3,0,0.6,0.1,1,0.2c0.4,0.1,0.7,0.2,1.1,0.3    c0.8,0.3,1.6,0.6,2.4,1c0.8,0.5,1.6,0.9,2.2,1.4c0.3,0.3,0.6,0.6,0.8,1c0.2,0.3,0.4,0.7,0.5,1c0.2,0.7,0.3,1.3,0.2,1.7    c0,0.2-0.1,0.3-0.2,0.4c0,0.1-0.1,0.1-0.1,0.1l-0.2,0c0,0-0.1-0.2-0.3-0.4c-0.2-0.2-0.5-0.6-0.9-0.9c-0.2-0.2-0.4-0.4-0.6-0.6    c-0.2-0.2-0.5-0.4-0.7-0.7c-0.5-0.5-1-1.1-1.6-1.6c-0.6-0.5-1.3-0.8-1.9-1.3c-0.3-0.2-0.6-0.4-0.9-0.5c-0.3-0.1-0.6-0.3-0.9-0.4    c-0.6-0.2-1-0.4-1.4-0.5c-0.3-0.1-0.5-0.2-0.5-0.2L216,42.5z"/>
	</g>
	<g>
		<path fill="#FFFFFF" d="M209.5,89.6c0,0,0.1-0.1,0.2-0.3c0.1-0.2,0.3-0.5,0.5-0.9c0.1-0.2,0.2-0.4,0.3-0.6    c0.1-0.2,0.3-0.4,0.5-0.6c0.2-0.2,0.3-0.4,0.5-0.6c0.2-0.2,0.3-0.4,0.5-0.6c0.3-0.4,0.6-0.9,0.9-1.2c0.2-0.2,0.3-0.3,0.5-0.5    c0.2-0.1,0.5-0.3,0.7-0.3c0.2-0.1,0.5-0.1,0.7-0.2c0.2,0,0.4,0,0.5,0.1c0.3,0.1,0.4,0.2,0.4,0.2l0,0.2c0,0-0.1,0.1-0.2,0.3    c-0.1,0.2-0.2,0.4-0.4,0.7c-0.1,0.1-0.2,0.3-0.3,0.5c-0.1,0.1-0.1,0.2-0.2,0.3c-0.1,0.1-0.1,0.2-0.2,0.3c-0.4,0.4-0.9,0.6-1.4,0.9    c-0.4,0.3-0.9,0.7-1.3,0.9c-0.2,0.1-0.4,0.2-0.6,0.4c-0.2,0.1-0.4,0.3-0.5,0.4c-0.6,0.5-1,0.8-1,0.8L209.5,89.6z"/>
	</g>
	<g>
		<path fill="#FFFFFF" d="M196.3,93.6c0,0,0.1-0.2,0.3-0.5c0.1-0.2,0.2-0.3,0.3-0.6c0.1-0.2,0.3-0.5,0.4-0.7    c0.1-0.3,0.3-0.6,0.4-0.9c0.1-0.3,0.3-0.6,0.5-1c0.3-0.7,0.6-1.4,0.8-2.2c0.3-0.7,0.3-1.5,0.4-2.1c0.1-0.3,0.1-0.7,0.2-1    c0.1-0.3,0.2-0.6,0.3-0.9c0.2-0.6,0.3-1.1,0.4-1.4c0.1-0.4,0.2-0.6,0.2-0.6l0.2,0c0,0,0.1,0.2,0.4,0.6c0.1,0.2,0.2,0.4,0.3,0.7    c0,0.1,0.1,0.3,0.1,0.4c0,0.1,0.1,0.3,0.1,0.5c0,0.2,0.1,0.3,0.1,0.5c0,0.2,0,0.4,0,0.5c0,0.2,0,0.4,0,0.6c0,0.2,0,0.4-0.1,0.6    c-0.2,0.8-0.6,1.6-1,2.3c-0.4,0.7-0.8,1.5-1.2,2.1c-0.2,0.3-0.5,0.6-0.7,0.9c-0.2,0.3-0.4,0.6-0.6,0.8c-0.2,0.2-0.4,0.5-0.6,0.7    c-0.2,0.2-0.3,0.4-0.5,0.5c-0.3,0.3-0.4,0.4-0.4,0.4L196.3,93.6z"/>
	</g>
	<g>
		<path fill="#FFFFFF" d="M199.1,102.3c0,0-0.1,0-0.4,0c-0.2,0-0.6-0.1-1-0.1c-0.2,0-0.4-0.1-0.7-0.1c-0.2,0-0.5-0.2-0.7-0.3    c-0.5-0.2-1-0.6-1.5-1c-0.4-0.5-0.9-1-1-1.7c0-0.2-0.1-0.3-0.1-0.5c0-0.2,0-0.3,0.1-0.5c0.1-0.3,0.2-0.6,0.3-0.8    c0.3-0.4,0.6-0.7,0.9-0.8c0.3-0.1,0.4-0.2,0.4-0.2l0.2,0.1c0,0,0,0.2,0.1,0.4c0,0.1,0,0.1,0,0.2c0,0.1,0,0.1,0,0.2    c0,0.1,0,0.3,0.1,0.4c0,0.1,0,0.1,0,0.2c0,0.1,0,0.1,0,0.2c0,0.2,0.1,0.3,0.1,0.5c0.1,0.3,0.1,0.8,0.2,1.2c0.2,0.4,0.5,0.7,0.8,1    c0.2,0.2,0.3,0.3,0.5,0.4c0.2,0.1,0.3,0.2,0.5,0.3c0.7,0.4,1.1,0.6,1.1,0.6L199.1,102.3z"/>
	</g>
	<g>
		<path fill="#FFFFFF" d="M214.1,112.7c0,0-0.1-0.1-0.4-0.3c-0.3-0.2-0.6-0.5-1-0.9c-0.2-0.2-0.4-0.4-0.7-0.6    c-0.3-0.2-0.5-0.4-0.8-0.6c-0.6-0.4-1.2-0.6-2-0.8c-0.4-0.2-0.8-0.3-1.2-0.5c-0.4-0.2-0.7-0.4-1.1-0.6c-0.3-0.3-0.6-0.5-0.8-0.9    c-0.2-0.4-0.4-0.7-0.4-1.1c-0.2-0.7,0-1.3,0.2-1.6c0.1-0.2,0.2-0.3,0.3-0.3c0.1-0.1,0.1-0.1,0.1-0.1l0.2,0.1c0,0,0,0,0,0.1    c0,0.1,0.1,0.2,0.1,0.3c0.1,0.2,0.3,0.5,0.6,0.8c0.1,0.2,0.3,0.3,0.5,0.5c0.2,0.2,0.4,0.3,0.7,0.5c0.2,0.2,0.5,0.4,0.7,0.7    c0.2,0.2,0.5,0.4,0.8,0.6c0.3,0.2,0.7,0.3,1,0.6c0.2,0.1,0.3,0.2,0.5,0.4c0.2,0.1,0.3,0.3,0.5,0.4c0.3,0.3,0.5,0.6,0.8,0.9    c0.2,0.3,0.4,0.6,0.6,0.8c0.3,0.5,0.6,0.9,0.7,1.2c0.2,0.2,0.3,0.4,0.3,0.4L214.1,112.7z"/>
	</g>
	<g>
		<path fill="#FFFFFF" d="M224.2,116.8c0,0-0.1,0.1-0.4,0.2c-0.3,0.1-0.6,0.3-1.1,0.4c-0.2,0.1-0.5,0.2-0.7,0.2    c-0.3,0.1-0.6,0.1-0.9,0.1c-0.6,0.1-1.3,0.1-2,0c-0.7-0.1-1.4-0.2-2-0.5c-0.2-0.1-0.3-0.2-0.4-0.3c-0.1-0.1-0.3-0.2-0.4-0.3    c-0.1-0.1-0.2-0.2-0.3-0.4c-0.1-0.1-0.2-0.3-0.2-0.4c-0.3-0.5-0.4-1-0.3-1.3c0-0.2,0.1-0.3,0.1-0.4c0-0.1,0-0.1,0-0.1l0.2-0.1    c0,0,0,0,0.1,0.1c0.1,0,0.1,0.1,0.3,0.1c0.2,0.1,0.5,0.3,0.8,0.4c0.2,0.1,0.4,0.2,0.5,0.3c0.2,0.1,0.4,0.2,0.6,0.3    c0.4,0.2,0.9,0.6,1.4,0.8c0.3,0.1,0.5,0.2,0.8,0.2c0.3,0.1,0.5,0.1,0.8,0.2c0.3,0.1,0.5,0.1,0.8,0.1c0.3,0,0.5,0,0.7,0    c0.5,0,0.8,0,1.1,0c0.3,0,0.4,0,0.4,0L224.2,116.8z"/>
	</g>
	<g>
		<path fill="#FFFFFF" d="M202.9,99.4c0,0-0.1-0.1-0.3-0.4c-0.1-0.1-0.2-0.3-0.3-0.5c-0.1-0.2-0.2-0.4-0.3-0.7    c-0.1-0.3-0.2-0.6-0.3-0.9c-0.1-0.3,0-0.7,0-1.1c0.1-0.8,0.3-1.6,0.7-2.4c0.4-0.7,0.8-1.5,1.1-2c0.2-0.3,0.4-0.5,0.6-0.7    c0.2-0.2,0.4-0.3,0.5-0.5c0.1-0.2,0.2-0.3,0.2-0.5c0-0.2,0-0.4,0-0.6c0-0.2,0-0.3,0-0.4c0-0.1,0-0.2,0-0.2l0.2-0.1    c0,0,0.1,0,0.2,0.1c0.1,0,0.1,0.1,0.2,0.1c0.1,0.1,0.1,0.1,0.2,0.2c0.2,0.2,0.4,0.4,0.5,0.7c0.1,0.3,0.2,0.8,0.2,1.2    c0,0.4-0.2,0.8-0.3,1.1c-0.2,0.3-0.3,0.7-0.6,1c-0.4,0.6-1,1-1.5,1.6c-0.4,0.6-0.7,1.1-0.9,1.7c-0.1,0.3-0.2,0.6-0.2,0.8    c0,0.3,0,0.5,0,0.8c0,0.5,0.1,0.9,0.2,1.1c0.1,0.3,0.1,0.4,0.1,0.4L202.9,99.4z"/>
	</g>
	<g>
		<path fill="#FFFFFF" d="M312.8,18.4c0,0,0.1-0.1,0.3-0.4c0.1-0.1,0.2-0.3,0.4-0.4c0.1-0.2,0.3-0.4,0.4-0.6    c0.2-0.2,0.3-0.5,0.4-0.7c0.1-0.2,0.3-0.5,0.4-0.8c0.3-0.6,0.5-1.2,0.6-1.8c0.1-0.3,0.2-0.6,0.3-0.9l0.1-0.2l0.1-0.3    c0.1-0.2,0.1-0.4,0.2-0.5c0.2-0.3,0.3-0.6,0.5-0.8c0.2-0.2,0.4-0.4,0.5-0.5c0.3-0.3,0.6-0.6,0.6-0.9c0-0.1,0-0.2,0-0.2    c0-0.1,0-0.1,0-0.2c0-0.1,0-0.2,0-0.2l0.2-0.1c0,0,0.3,0.1,0.6,0.5c0,0.1,0.1,0.1,0.1,0.2c0,0.1,0.1,0.1,0.1,0.2    c0.1,0.2,0.1,0.3,0.1,0.5c0,0.3,0,0.6-0.1,0.9c-0.1,0.3-0.2,0.6-0.3,0.9c-0.1,0.3-0.2,0.6-0.4,0.8c-0.1,0.1-0.1,0.2-0.2,0.3    c-0.1,0.1-0.2,0.3-0.2,0.4c-0.2,0.3-0.4,0.6-0.6,0.9l-0.2,0.5c-0.1,0.2-0.2,0.3-0.3,0.4c-0.2,0.3-0.4,0.6-0.6,0.8    c-0.2,0.3-0.5,0.5-0.7,0.7c-0.2,0.2-0.5,0.4-0.7,0.6c-0.2,0.2-0.4,0.3-0.6,0.5c-0.2,0.1-0.4,0.2-0.5,0.3c-0.3,0.2-0.4,0.3-0.4,0.3    L312.8,18.4z"/>
	</g>
	<g>
		<path fill="#FFFFFF" d="M214.9,64.6c0,0,0,0,0.1,0c0.1,0,0.3,0,0.5,0c0.5,0,1.2,0.1,2,0.2c0.4,0,0.9,0.1,1.4,0.1    c0.5,0,1,0.2,1.6,0.2c1.1,0.2,2.3,0.3,3.4,0.5c1.1,0.2,2.3,0.3,3.4,0.4c0.5,0.1,1,0.1,1.5,0.2c0.5,0.1,0.9,0.2,1.3,0.2    c0.8,0.1,1.5,0.1,2,0.1c0.3,0,0.5-0.1,0.6-0.1c0.1,0,0.2,0,0.2,0l0.1,0.2c0,0-0.1,0.1-0.2,0.2c-0.1,0.1-0.3,0.3-0.6,0.5    c-0.5,0.4-1.3,0.7-2.3,0.9c-0.5,0.1-1,0.1-1.5,0.1c-0.5,0-1.1,0-1.6-0.1c-1.1-0.1-2.2-0.5-3.3-0.9c-1.1-0.3-2.2-0.6-3.2-0.9    c-0.5-0.2-1-0.3-1.5-0.5c-0.5-0.1-0.9-0.3-1.4-0.4c-0.8-0.2-1.5-0.4-2-0.6c-0.2-0.1-0.4-0.1-0.5-0.1c-0.1,0-0.1,0-0.1,0    L214.9,64.6z"/>
	</g>
	<g>
		<path fill="#FFFFFF" d="M216,80.4c0,0,0.1-0.2,0.2-0.6c0.1-0.4,0.4-0.9,0.8-1.6c0.2-0.3,0.4-0.7,0.6-1c0.3-0.3,0.6-0.7,1-1    c0.4-0.4,0.8-0.7,1.2-1c0.2-0.2,0.4-0.3,0.7-0.5c0.2-0.2,0.5-0.3,0.7-0.4c1-0.5,2.1-1,3.1-1.2c0.3,0,0.5-0.1,0.8-0.1    c0.1,0,0.3,0,0.4,0c0.1,0,0.2,0,0.4,0.1c0.5,0.1,0.9,0.1,1.3,0.3c0.4,0.1,0.7,0.3,1,0.4c0.3,0.2,0.5,0.3,0.7,0.4    c0.4,0.3,0.6,0.4,0.6,0.4l-0.1,0.2c0,0-0.3,0-0.7,0.1c-0.2,0-0.5,0-0.8,0.1c-0.3,0-0.6,0.1-1,0.1c-0.3,0-0.7,0.1-1.1,0.1    c-0.4,0-0.8,0.1-1.2,0.2c-0.4,0.1-0.8,0.1-1.3,0.2c-0.4,0.1-0.9,0.1-1.3,0.3c-0.9,0.3-1.6,0.8-2.4,1.3c-0.2,0.1-0.4,0.2-0.5,0.4    c-0.2,0.1-0.3,0.3-0.5,0.4c-0.3,0.3-0.6,0.6-0.8,0.8c-0.5,0.5-0.8,1-1.1,1.3c-0.1,0.2-0.2,0.3-0.3,0.4c-0.1,0.1-0.1,0.1-0.1,0.1    L216,80.4z"/>
	</g>
	<g>
		<path fill="#FFFFFF" d="M183.6,50c0,0,0.8-0.5,1.9-1.3c0.3-0.2,0.6-0.4,0.9-0.6c0.3-0.2,0.7-0.4,1.1-0.6c0.4-0.2,0.8-0.4,1.3-0.6    c0.4-0.2,0.9-0.4,1.4-0.6c0.2-0.1,0.5-0.2,0.7-0.2c0.2-0.1,0.5-0.1,0.7-0.2c0.5-0.2,1-0.3,1.4-0.3c0.5-0.1,0.9-0.1,1.4,0    c0.4,0.1,0.8,0.2,1.2,0.2c1.4,0.4,2.3,0.9,2.3,0.9l0,0.2c0,0-0.3,0.1-0.7,0.2c-0.4,0.1-1.1,0.3-1.7,0.4c-0.3,0-0.7,0.1-1.1,0.1    c-0.2,0-0.4,0-0.6,0c-0.2,0-0.4,0.1-0.6,0.1c-0.2,0-0.4,0-0.6,0c-0.2,0-0.4,0-0.6,0c-0.4,0-0.9,0-1.3,0.1    c-0.4,0.1-0.8,0.2-1.3,0.3c-0.4,0.1-0.8,0.2-1.2,0.4c-0.4,0.1-0.8,0.2-1.2,0.4c-0.4,0.1-0.7,0.3-1.1,0.4c-0.7,0.3-1.2,0.5-1.6,0.6    c-0.4,0.1-0.6,0.2-0.6,0.2L183.6,50z"/>
	</g>
	<g>
		<path fill="#FFFFFF" d="M202.2,46.5c0,0,1-0.2,2.5-0.3c0.4,0,0.8-0.1,1.2-0.1c0.4,0,0.9,0,1.4,0c1,0,2.1,0,3.1,0.1    c1.1,0.1,2.1,0.2,3.1,0.4c0.5,0.1,1,0.2,1.4,0.5c0.4,0.2,0.8,0.4,1.2,0.6c0.7,0.4,1.2,0.9,1.5,1.2c0.3,0.3,0.5,0.6,0.5,0.6    l-0.1,0.2c0,0-0.3,0-0.7-0.1c-0.2,0-0.5-0.1-0.8-0.1c-0.3,0-0.6-0.1-1-0.2c-0.4-0.1-0.8-0.1-1.2-0.2c-0.4-0.1-0.8-0.2-1.3-0.3    c-0.9-0.2-1.8-0.6-2.8-0.8c-1-0.2-1.9-0.3-2.8-0.5c-0.5-0.1-0.9-0.2-1.3-0.2c-0.4,0-0.9-0.1-1.2-0.1c-1.5-0.1-2.6-0.2-2.6-0.2    L202.2,46.5z"/>
	</g>
	<g>
		<path fill="#FFFFFF" d="M195.5,54.8c0,0,0.7-0.4,1.8-0.9c0.3-0.1,0.6-0.3,0.9-0.4c0.3-0.2,0.7-0.2,1-0.4c0.4-0.1,0.8-0.2,1.2-0.4    c0.4-0.1,0.8-0.2,1.2-0.3c0.4-0.1,0.8-0.1,1.3-0.2c0.4-0.1,0.9-0.1,1.3-0.1c0.4,0,0.8,0,1.1,0.2c0.3,0.1,0.7,0.2,1,0.3    c0.6,0.3,1.1,0.6,1.4,0.8c0.1,0.1,0.2,0.3,0.2,0.3c0,0.1,0,0.2,0,0.2l-0.1,0.1c0,0,0,0-0.1,0c0,0-0.1,0-0.3,0.1    c-0.3,0-0.8,0.1-1.4,0.2c-0.1,0-0.3,0-0.4,0c-0.2,0-0.3,0-0.5,0c-0.3,0-0.7,0-1,0c-0.3,0-0.7-0.1-1-0.1c-0.4,0-0.7-0.1-1.1-0.1    c-0.4,0-0.7,0.1-1.1,0.1c-0.4,0-0.7,0.1-1.1,0.1c-0.4,0-0.7,0.1-1.1,0.1c-0.3,0.1-0.7,0.1-1,0.2c-1.2,0.3-2,0.4-2,0.4L195.5,54.8z    "/>
	</g>
	<g>
		<path fill="#FFFFFF" d="M197.5,63.3c0,0,0.2,0,0.6,0c0.4,0,0.9,0,1.4,0c0.3,0,0.6-0.1,0.9-0.1c0.3-0.1,0.7,0,1-0.1    c0.7-0.1,1.5-0.2,2.2-0.3c0.8-0.1,1.5-0.3,2.2-0.4c0.2,0,0.3,0,0.5-0.1c0.2,0,0.3,0,0.5,0c0.3,0,0.6,0.1,0.9,0.1    c0.6,0.1,1.1,0.2,1.4,0.2c0.4,0.1,0.6,0.2,0.6,0.2l0,0.2c0,0-0.2,0.2-0.5,0.4c-0.2,0.1-0.3,0.2-0.6,0.4c-0.2,0.1-0.5,0.3-0.8,0.4    c-0.3,0.1-0.6,0.2-0.9,0.3c-0.3,0.1-0.7,0.2-1,0.2c-0.7,0.1-1.5,0-2.3-0.1c-0.8,0-1.5,0-2.3-0.1c-0.4,0-0.7-0.1-1.1-0.2    c-0.3,0-0.7-0.1-1-0.1c-0.3-0.1-0.6-0.1-0.8-0.2c-0.2-0.1-0.5-0.1-0.6-0.2c-0.4-0.1-0.6-0.2-0.6-0.2L197.5,63.3z"/>
	</g>
	<g>
		<path fill="#FFFFFF" d="M172.7,52.3c0,0,0.5-0.3,1.4-0.7c0.2-0.1,0.4-0.2,0.7-0.3c0.2-0.1,0.5-0.2,0.8-0.3    c0.6-0.2,1.2-0.3,1.8-0.5c0.6,0,1.3-0.2,1.9-0.2c0.3,0,0.6,0,0.9,0.2c0.3,0.1,0.5,0.2,0.7,0.4c0.2,0.1,0.4,0.3,0.6,0.4    c0.2,0.2,0.3,0.3,0.4,0.4c0.2,0.3,0.2,0.4,0.2,0.4l-0.1,0.2c0,0,0,0-0.1,0c-0.1,0-0.2,0-0.3,0.1c-0.3,0.1-0.6,0.1-1,0.1    c-0.2,0-0.4,0-0.7,0c-0.2,0-0.5,0-0.7,0c-0.5,0-1.1-0.2-1.6-0.3c-0.6,0-1.1,0-1.7,0c-0.3,0-0.5,0-0.8,0c-0.3,0-0.5,0.1-0.7,0.1    c-0.9,0.1-1.5,0.2-1.5,0.2L172.7,52.3z"/>
	</g>
	<g>
		<path fill="#FFFFFF" d="M158.8,54.6c0,0,0.2,0,0.6,0c0.4,0,0.9,0,1.6,0c0.3,0,0.7,0,1.1,0c0.4,0,0.8,0.1,1.2,0.1    c0.9,0.1,1.8,0.2,2.7,0.3c0.9,0.1,1.8,0.1,2.6,0.2c0.4,0.1,0.8,0.1,1.1,0.2c0.3,0.1,0.7,0.2,1,0.2c0.3,0.1,0.6,0.1,0.8,0.1    c0.1,0,0.2,0,0.3,0c0.1,0,0.2,0,0.3-0.1c0.1,0,0.2-0.1,0.3-0.1c0.1,0,0.1-0.1,0.2-0.1c0.1-0.1,0.2-0.1,0.2-0.1l0.2,0.1    c0,0,0,0.1,0,0.2c0,0.1,0,0.2-0.1,0.3c0,0.1-0.1,0.2-0.2,0.4c-0.3,0.5-1.1,1-1.9,1.1c-0.4,0.1-0.8,0.1-1.2,0.1    c-0.4,0-0.8,0-1.3-0.1c-0.9-0.1-1.7-0.5-2.6-0.7c-0.9-0.2-1.7-0.4-2.5-0.7c-0.4-0.1-0.8-0.3-1.2-0.4c-0.4-0.1-0.7-0.2-1.1-0.3    c-0.7-0.2-1.2-0.3-1.6-0.4c-0.4-0.1-0.6-0.1-0.6-0.1L158.8,54.6z"/>
	</g>
	<g>
		<path fill="#FFFFFF" d="M134.3,50.5c0,0,0.1,0.1,0.2,0.2c0.1,0.1,0.3,0.3,0.6,0.4c0.5,0.3,1.3,0.5,2.2,0.7    c0.4,0.1,0.9,0.1,1.4,0.2c0.5,0,1.1,0.1,1.6,0.2c1.2,0.1,2.4,0.2,3.7,0.2c1.2,0.1,2.5,0.1,3.7,0.1c0.6,0.1,1.2,0.1,1.7,0.2    c0.5,0.1,1,0.2,1.5,0.3c0.9,0.2,1.6,0.4,2.2,0.6c0.5,0.2,0.8,0.3,0.8,0.3l0,0.2c0,0-0.3,0.1-0.9,0.3c-0.6,0.1-1.4,0.3-2.3,0.3    c-0.5,0-1,0-1.5,0c-0.5,0-1.1,0-1.6-0.1c-1.1-0.1-2.3-0.4-3.5-0.6c-1.2-0.2-2.4-0.4-3.5-0.6c-0.6-0.1-1.1-0.3-1.6-0.4    c-0.5-0.1-1.1-0.3-1.5-0.4c-0.9-0.3-1.7-0.7-2.3-1.1c-0.1-0.1-0.3-0.2-0.4-0.3c-0.1-0.1-0.2-0.2-0.3-0.2c-0.1-0.2-0.2-0.2-0.2-0.2    L134.3,50.5z"/>
	</g>
	<g>
		<path fill="#FFFFFF" d="M130.5,58.8c0,0,0.2-0.1,0.5-0.3c0.2-0.1,0.4-0.2,0.6-0.4c0.2-0.1,0.5-0.3,0.8-0.4    c0.3-0.2,0.6-0.3,0.9-0.5c0.3-0.2,0.8-0.3,1.2-0.4c0.4-0.1,0.9-0.2,1.3-0.4c0.5-0.1,0.9-0.2,1.4-0.2c0.5,0,1-0.1,1.4-0.1    c0.5,0,1,0,1.4,0c0.5,0.1,0.9,0.1,1.2,0.3c0.4,0.1,0.7,0.3,1,0.4c0.3,0.1,0.6,0.3,0.8,0.4c0.2,0.1,0.5,0.2,0.6,0.3    c0.4,0.2,0.6,0.3,0.6,0.3l0,0.2c0,0-0.3,0.1-0.7,0.2c-0.5,0.1-1.1,0.2-1.8,0.2c-0.3,0-0.7,0-1.1-0.1c-0.4-0.1-0.7-0.1-1.1-0.1    c-0.8-0.1-1.6-0.3-2.4-0.4c-0.4,0-0.8,0-1.2,0c-0.4,0-0.8,0-1.2,0.1c-0.4,0.1-0.8,0.1-1.1,0.1c-0.4,0.1-0.7,0.2-1,0.3    c-0.6,0.2-1.1,0.3-1.5,0.5c-0.4,0.1-0.6,0.2-0.6,0.2L130.5,58.8z"/>
	</g>
	<g>
		<path fill="#FFFFFF" d="M118.5,43.6c0,0,0.2,0.2,0.5,0.4c0.2,0.1,0.3,0.3,0.6,0.5c0.2,0.2,0.5,0.4,0.7,0.6    c0.3,0.2,0.6,0.4,0.9,0.6c0.3,0.2,0.7,0.5,1,0.7c0.7,0.5,1.5,1,2.4,1.4c0.8,0.5,1.7,0.7,2.4,1c0.4,0.2,0.8,0.3,1.1,0.5    c0.3,0.2,0.7,0.4,1,0.5c0.3,0.2,0.6,0.3,0.8,0.5c0.3,0.2,0.5,0.3,0.7,0.4c0.4,0.2,0.6,0.4,0.6,0.4l-0.1,0.2c0,0-0.3,0.1-0.7,0.2    c-0.2,0.1-0.5,0.1-0.8,0.1c-0.2,0-0.3,0-0.5,0c-0.2,0-0.4,0-0.5,0c-0.4,0-0.8-0.1-1.2-0.2c-0.4-0.1-0.8-0.2-1.3-0.4    c-0.8-0.4-1.6-1-2.4-1.6c-0.8-0.6-1.5-1.1-2.2-1.8c-0.3-0.3-0.6-0.7-0.9-1c-0.3-0.3-0.6-0.6-0.8-0.9c-0.2-0.3-0.5-0.5-0.6-0.8    c-0.2-0.2-0.3-0.5-0.5-0.6c-0.2-0.4-0.4-0.6-0.4-0.6L118.5,43.6z"/>
	</g>
	<g>
		<path fill="#FFFFFF" d="M99.9,41c0,0,1.2,0.2,3,0.6c0.5,0.1,0.9,0.2,1.4,0.4c0.5,0.1,1.1,0.4,1.6,0.6c0.6,0.2,1.1,0.5,1.8,0.7    c0.6,0.3,1.2,0.6,1.8,0.9c0.6,0.4,1.1,0.7,1.7,1.1c0.6,0.3,1.2,0.7,1.6,1.1c0.5,0.4,1,0.8,1.3,1.2c0.4,0.4,0.7,0.8,1,1.3    c0.3,0.4,0.5,0.8,0.7,1.2c0.2,0.4,0.3,0.7,0.4,0.9c0.1,0.5,0.2,0.8,0.2,0.8l-0.2,0.1c0,0-0.3-0.2-0.7-0.6c-0.4-0.4-1-0.8-1.8-1.3    c-0.4-0.3-0.8-0.6-1.2-0.9c-0.4-0.3-0.9-0.6-1.3-1c-0.9-0.7-1.7-1.5-2.7-2.3c-1-0.6-2-1.2-3-1.8c-0.5-0.3-1-0.5-1.5-0.8    c-0.5-0.2-1-0.4-1.4-0.6c-1.8-0.7-2.9-1.1-2.9-1.1L99.9,41z"/>
	</g>
	<g>
		<path fill="#FFFFFF" d="M99.9,29.8c0,0,0.5,0.5,1.3,1.3c0.2,0.2,0.4,0.4,0.6,0.6c0.2,0.2,0.4,0.5,0.6,0.8c0.4,0.5,0.9,1.1,1.4,1.7    c0.4,0.6,0.9,1.1,1.4,1.6c0.2,0.3,0.4,0.5,0.5,0.8c0.1,0.3,0.2,0.5,0.3,0.8c0.1,0.3,0.2,0.5,0.3,0.7c0.1,0.2,0.1,0.4,0.2,0.6    c0.1,0.3,0.1,0.6,0.1,0.6l-0.2,0.1c0,0-0.2-0.1-0.6-0.2c-0.3-0.2-0.8-0.4-1.2-0.8c-0.2-0.2-0.5-0.4-0.7-0.6    c-0.2-0.2-0.4-0.5-0.6-0.8c-0.4-0.6-0.6-1.3-1-1.9c-0.3-0.6-0.7-1.2-1-1.9c-0.1-0.3-0.3-0.6-0.4-0.9c-0.2-0.3-0.3-0.5-0.4-0.8    c-0.3-0.5-0.5-0.9-0.6-1.2c-0.1-0.3-0.2-0.5-0.2-0.5L99.9,29.8z"/>
	</g>
	<g>
		<path fill="#FFFFFF" d="M88.1,23.9c0,0,0.2,0.1,0.6,0.2c0.4,0.2,1,0.4,1.6,0.7c0.3,0.2,0.7,0.3,1.1,0.5c0.4,0.2,0.7,0.5,1.1,0.7    c0.8,0.5,1.6,1.2,2.4,1.9c0.7,0.8,1.5,1.5,2.1,2.3c0.1,0.2,0.3,0.4,0.4,0.6c0.1,0.1,0.1,0.2,0.2,0.3c0,0.1,0.1,0.2,0.1,0.3    c0.2,0.4,0.3,0.8,0.4,1.2c0.1,0.4,0.2,0.7,0.2,1.1c0,0.3,0,0.6,0,0.8c0,0.4,0,0.7,0,0.7l-0.2,0c0,0-0.2-0.2-0.5-0.6    c-0.3-0.3-0.6-0.9-1.1-1.4c-0.2-0.3-0.4-0.6-0.6-0.9c-0.2-0.3-0.5-0.6-0.7-1c-0.4-0.7-0.9-1.5-1.4-2.3c-0.6-0.7-1.2-1.4-1.9-2    c-0.3-0.3-0.6-0.6-0.9-0.9c-0.3-0.3-0.6-0.5-0.9-0.7c-0.6-0.5-1.1-0.8-1.4-1c-0.3-0.3-0.5-0.4-0.5-0.4L88.1,23.9z"/>
	</g>
	<g>
		<path fill="#FFFFFF" d="M90,36.3c0,0,0.5,0.4,1.2,0.9c0.2,0.1,0.4,0.3,0.6,0.4c0.2,0.1,0.4,0.3,0.6,0.5c0.4,0.3,0.9,0.7,1.3,1    c0.4,0.3,0.9,0.5,1.2,0.8c0.2,0.1,0.4,0.2,0.5,0.4c0.1,0.1,0.1,0.2,0.2,0.3c0.1,0.1,0.1,0.2,0.2,0.2c0.1,0.2,0.3,0.3,0.4,0.4    c0.1,0.1,0.2,0.3,0.3,0.4c0.2,0.2,0.3,0.4,0.3,0.4l0,0.2c0,0-0.2,0.1-0.5,0.2c-0.2,0.1-0.3,0.1-0.6,0.1c-0.2,0-0.4,0-0.7-0.1    c-0.3,0-0.5-0.1-0.8-0.2c-0.2-0.1-0.5-0.2-0.8-0.4c-0.5-0.4-0.8-0.9-1.1-1.4c-0.4-0.4-0.7-0.9-1-1.3c-0.2-0.2-0.3-0.5-0.4-0.7    c-0.1-0.2-0.3-0.4-0.4-0.6c-0.5-0.7-0.8-1.2-0.8-1.2L90,36.3z"/>
	</g>
	<g>
		<path fill="#FFFFFF" d="M92.3,44.3c0,0,0.6,0.1,1.4,0.3c0.2,0.1,0.4,0.1,0.7,0.2c0.2,0.1,0.4,0.2,0.7,0.3c0.5,0.2,1,0.5,1.5,0.8    c0.4,0.4,0.9,0.7,1.3,1.2c0.1,0.2,0.3,0.4,0.4,0.7c0.1,0.3,0.1,0.5,0.1,0.8c0,0.2,0,0.5,0,0.6c0,0.2-0.1,0.4-0.1,0.5    c-0.1,0.3-0.2,0.4-0.2,0.4l-0.2,0c0,0-0.1-0.1-0.3-0.3c-0.2-0.2-0.4-0.4-0.7-0.7c-0.1-0.1-0.2-0.3-0.3-0.4    c-0.1-0.2-0.3-0.3-0.4-0.5c-0.2-0.4-0.4-0.8-0.7-1.2c-0.3-0.4-0.7-0.7-1-1c-0.2-0.2-0.3-0.3-0.5-0.5c-0.2-0.1-0.4-0.3-0.5-0.4    c-0.6-0.4-1.1-0.8-1.1-0.8L92.3,44.3z"/>
	</g>
	<g>
		<path fill="#FFFFFF" d="M92.5,52.4c0,0,0.2,0.1,0.5,0.2c0.3,0.2,0.7,0.4,1.2,0.6c0.2,0.1,0.5,0.2,0.8,0.3c0.3,0.1,0.6,0.3,0.9,0.4    c0.3,0.2,0.6,0.2,0.9,0.4c0.3,0.1,0.7,0.2,1,0.3c0.2,0,0.3,0.1,0.5,0.1c0.2,0,0.3,0.1,0.5,0.1c0.2,0,0.3,0,0.4,0    c0.1,0,0.1,0,0.2,0c0.1,0,0.2,0,0.2,0c0.3,0,0.6,0,0.9,0.1c0.3,0.1,0.6,0.2,0.8,0.2c0.3,0.1,0.5,0.1,0.7,0.2    c0.2,0.1,0.4,0.1,0.6,0.2c0.3,0.1,0.5,0.2,0.5,0.2l0,0.2c0,0-0.2,0.1-0.5,0.3c-0.3,0.2-0.8,0.4-1.3,0.5c-0.3,0.1-0.6,0.1-0.9,0.1    c-0.3,0-0.7,0-1,0c-0.1,0-0.2,0-0.3,0c-0.1,0-0.2-0.1-0.3-0.1c-0.2-0.1-0.4-0.1-0.6-0.2c-0.2-0.1-0.4-0.2-0.5-0.2    c-0.2-0.1-0.4-0.2-0.5-0.3c-0.3-0.2-0.7-0.3-1-0.5c-0.3-0.2-0.6-0.4-0.9-0.6c-0.3-0.2-0.5-0.4-0.8-0.7c-0.3-0.2-0.5-0.4-0.7-0.6    c-0.4-0.4-0.8-0.7-1-0.9c-0.2-0.2-0.4-0.4-0.4-0.4L92.5,52.4z"/>
	</g>
	<g>
		<path fill="#FFFFFF" d="M97.8,63.1c0,0,0.3,0.1,0.8,0.4c0.5,0.2,1.2,0.6,2,0.9c0.4,0.2,0.9,0.4,1.4,0.5c0.5,0.2,1,0.4,1.6,0.6    c1.1,0.4,2.3,0.6,3.5,0.6c0.6,0.1,1.2,0,1.8,0c0.6-0.1,1.2-0.2,1.8-0.2c0.6,0,1.1-0.2,1.7-0.1c0.3,0,0.5,0,0.8,0    c0.3,0,0.5,0,0.7,0c0.5,0,0.9,0,1.3,0c0.4,0,0.7,0,1,0c0.5,0,0.9,0,0.9,0l0,0.2c0,0-0.3,0.2-0.8,0.5c-0.3,0.1-0.6,0.3-0.9,0.5    c-0.4,0.2-0.8,0.3-1.2,0.5c-0.4,0.2-1,0.3-1.5,0.4c-0.3,0-0.5,0.1-0.8,0.2c-0.3,0.1-0.6,0.1-0.9,0.1c-0.6,0-1.2,0.1-1.8,0    c-0.6,0-1.3-0.1-1.9-0.3c-1.3-0.2-2.5-0.5-3.6-1.1c-0.6-0.2-1.1-0.5-1.6-0.8c-0.5-0.3-1-0.5-1.4-0.8c-0.8-0.5-1.5-1-1.9-1.3    c-0.4-0.3-0.7-0.5-0.7-0.5L97.8,63.1z"/>
	</g>
	<g>
		<path fill="#FFFFFF" d="M102.5,46.8c0,0,0.6,0.2,1.6,0.5c0.2,0.1,0.5,0.1,0.8,0.2c0.3,0.1,0.5,0.2,0.8,0.4    c0.6,0.3,1.2,0.5,1.8,0.8c0.6,0.3,1.2,0.6,1.7,0.9c0.2,0.2,0.5,0.4,0.7,0.6c0.2,0.2,0.3,0.4,0.5,0.7c0.1,0.2,0.3,0.4,0.4,0.6    c0.1,0.2,0.2,0.3,0.3,0.5c0.2,0.3,0.3,0.5,0.3,0.5l-0.1,0.2c0,0-0.1,0-0.2,0c-0.1,0-0.3,0-0.4,0c-0.3,0-0.8-0.2-1.3-0.4    c-0.2-0.1-0.5-0.2-0.7-0.4c-0.2-0.2-0.5-0.3-0.7-0.5c-0.5-0.4-0.9-0.9-1.3-1.3c-0.5-0.4-1-0.8-1.4-1.1c-0.2-0.2-0.4-0.4-0.7-0.5    c-0.2-0.2-0.5-0.3-0.7-0.4c-0.8-0.5-1.3-1-1.3-1L102.5,46.8z"/>
	</g>
	<g>
		<path fill="#FFFFFF" d="M106.1,59.6c0,0,0.2-0.1,0.5-0.3c0.3-0.2,0.8-0.4,1.3-0.6c0.3-0.1,0.6-0.3,0.9-0.4    c0.3-0.1,0.7-0.2,1.1-0.3c0.8-0.2,1.7-0.3,2.6-0.3c0.9,0,1.8,0,2.6,0.2c0.4,0.1,0.8,0.2,1.1,0.5c0.2,0.1,0.3,0.2,0.5,0.3    c0.1,0.1,0.3,0.2,0.4,0.3c0.3,0.2,0.5,0.5,0.6,0.7c0.2,0.2,0.3,0.4,0.4,0.6c0.2,0.3,0.2,0.6,0.2,0.6l-0.2,0.2c0,0-0.2,0-0.6-0.1    c-0.4-0.1-0.8-0.2-1.4-0.4c-0.3-0.1-0.6-0.1-0.9-0.3c-0.3-0.1-0.6-0.1-0.9-0.2c-0.6-0.2-1.3-0.5-2.1-0.7c-0.7-0.1-1.5-0.1-2.2-0.2    c-0.4,0-0.7,0-1.1,0c-0.3,0-0.7,0.1-1,0.1c-0.6,0.1-1.1,0.2-1.4,0.3c-0.3,0.1-0.5,0.1-0.5,0.1L106.1,59.6z"/>
	</g>
	<g>
		<path fill="#FFFFFF" d="M121.5,57.2c0,0,0,0.1,0,0.2c0,0.1,0.1,0.3,0.1,0.5c0.1,0.4,0.4,1,0.9,1.5c0.2,0.3,0.5,0.5,0.9,0.7    c0.3,0.2,0.7,0.4,1,0.6c0.7,0.4,1.6,0.7,2.5,0.9c0.8,0.3,1.7,0.5,2.6,0.7c0.4,0.1,0.8,0.2,1.1,0.4c0.4,0.2,0.7,0.3,1,0.5    c0.6,0.3,1.1,0.6,1.5,0.8c0.2,0.1,0.3,0.2,0.4,0.2c0.1,0.1,0.2,0.1,0.2,0.1l0,0.2c0,0-0.3,0.1-0.7,0.2c-0.5,0.1-1.1,0.2-1.8,0.1    c-0.4,0-0.7-0.1-1.1-0.1c-0.4-0.1-0.8-0.1-1.2-0.3c-0.8-0.3-1.6-0.7-2.5-1.2c-0.8-0.4-1.7-0.8-2.4-1.4c-0.4-0.3-0.7-0.6-1-0.9    c-0.3-0.3-0.6-0.6-0.9-1c-0.5-0.7-0.7-1.4-0.8-1.9c0-0.3,0-0.5,0-0.6c0-0.1,0-0.2,0-0.2L121.5,57.2z"/>
	</g>
	<g>
		<path fill="#FFFFFF" d="M119.8,72c0,0,0.2-0.1,0.5-0.3c0.3-0.2,0.7-0.5,1.3-0.8c0.3-0.1,0.6-0.3,0.9-0.5c0.3-0.2,0.7-0.3,1.1-0.4    c0.4-0.1,0.8-0.3,1.2-0.3c0.4-0.1,0.9-0.2,1.3-0.3c0.9-0.1,1.8-0.2,2.6-0.2c0.4,0,0.8,0,1.2,0.2c0.4,0.1,0.7,0.2,1,0.4    c1.2,0.5,1.9,1.1,1.9,1.1l-0.1,0.2c0,0-0.2,0.1-0.6,0.2c-0.4,0.1-0.9,0.2-1.5,0.2c-0.3,0-0.6,0-1,0c-0.3,0-0.7,0-1.1,0    c-0.7-0.1-1.5-0.2-2.3-0.3c-0.8,0-1.5,0-2.3,0.1c-0.4,0-0.7,0-1.1,0.1c-0.3,0.1-0.7,0.2-1,0.2c-0.1,0-0.3,0.1-0.4,0.1    c-0.1,0-0.3,0.1-0.4,0.1c-0.2,0.1-0.4,0.1-0.6,0.2c-0.3,0.1-0.5,0.2-0.5,0.2L119.8,72z"/>
	</g>
	<g>
		<path fill="#FFFFFF" d="M138.1,64.7c0,0,0.2,0,0.5,0c0.1,0,0.3,0,0.5,0c0.2,0,0.4,0,0.7,0c0.2,0,0.5,0,0.8-0.1    c0.3,0,0.6,0,0.9-0.1c0.3,0,0.6,0,0.9-0.1c0.1,0,0.3,0,0.5-0.1c0.1,0,0.3-0.1,0.4-0.1c0.1,0,0.3,0,0.4-0.1l0.4-0.1    c0.1,0,0.3-0.1,0.4-0.1c0.1-0.1,0.3-0.1,0.4-0.1c0.1,0,0.3-0.1,0.4-0.1c0.1,0,0.2,0,0.4,0c0.2,0,0.5,0,0.7,0    c0.4,0,0.8-0.1,1.1-0.3c0.1-0.1,0.3-0.2,0.3-0.2c0.1-0.1,0.1-0.1,0.1-0.1L148,63c0,0,0,0.1,0,0.2c0,0.1,0,0.3,0,0.5    c-0.1,0.4-0.4,1-0.9,1.3c-0.2,0.2-0.5,0.4-0.8,0.5c-0.3,0.1-0.6,0.2-0.9,0.3c-0.2,0-0.3,0.1-0.5,0.1c-0.2,0-0.3,0-0.5,0    c-0.2,0-0.3,0-0.5,0c-0.2,0-0.3,0-0.5-0.1l-0.5,0c-0.2,0-0.3,0-0.5,0c-0.3,0-0.6-0.1-1-0.1c-0.3-0.1-0.6-0.1-0.9-0.2    c-0.3-0.1-0.6-0.1-0.8-0.2c-0.5-0.1-0.9-0.2-1.2-0.3c-0.3-0.1-0.4-0.2-0.4-0.2L138.1,64.7z"/>
	</g>
	<g>
		<path fill="#FFFFFF" d="M138.5,73.4c0,0,0.4-0.3,1-0.8c0.2-0.1,0.3-0.2,0.5-0.4c0.2-0.1,0.4-0.2,0.6-0.3c0.4-0.2,0.8-0.5,1.2-0.7    c0.4-0.2,0.7-0.5,1.1-0.7c0.2-0.1,0.3-0.2,0.5-0.2c0.2,0,0.4,0,0.5-0.1c0.2,0,0.3-0.1,0.5-0.1c0.1,0,0.2,0,0.2,0    c0.1,0,0.1,0,0.2,0c0.3-0.1,0.4-0.1,0.4-0.1l0.2,0.1c0,0,0,0.2,0,0.5c0,0.3-0.2,0.7-0.5,1c-0.1,0.2-0.3,0.3-0.5,0.5    c-0.2,0.1-0.4,0.3-0.6,0.4c-0.5,0.2-1,0.2-1.5,0.3c-0.5,0.1-0.9,0.3-1.4,0.3c-0.2,0-0.4,0-0.7,0.1c-0.2,0.1-0.4,0.1-0.6,0.1    c-0.7,0.2-1.2,0.3-1.2,0.3L138.5,73.4z"/>
	</g>
	<g>
		<path fill="#FFFFFF" d="M152,68.4c0,0,0.1-0.8,0.3-1.9c0.1-0.3,0.1-0.6,0.2-0.9c0.1-0.3,0.2-0.7,0.4-1c0.3-0.7,0.6-1.4,1.1-2.2    c0.5-0.7,1-1.4,1.6-1.9c0.3-0.2,0.6-0.5,1-0.6c0.3-0.1,0.7-0.2,1-0.3c0.3-0.1,0.6-0.1,0.9-0.1c0.3,0,0.5,0,0.7,0.1    c0.4,0.1,0.6,0.2,0.6,0.2l0,0.2c0,0-0.2,0.2-0.4,0.4c-0.1,0.1-0.3,0.2-0.5,0.4c-0.2,0.1-0.4,0.3-0.6,0.4c-0.2,0.1-0.4,0.3-0.7,0.5    c-0.2,0.2-0.4,0.4-0.7,0.6c-0.5,0.4-1.1,0.7-1.6,1.2c-0.5,0.5-0.9,1.1-1.3,1.6c-0.2,0.3-0.4,0.5-0.6,0.8c-0.2,0.3-0.3,0.6-0.4,0.8    c-0.5,1-0.9,1.7-0.9,1.7L152,68.4z"/>
	</g>
	<g>
		<path fill="#FFFFFF" d="M174.3,61.2c0,0,0.6-0.4,1.4-0.9c0.2-0.1,0.4-0.3,0.7-0.5c0.2-0.2,0.5-0.3,0.8-0.4    c0.6-0.3,1.2-0.6,1.8-0.8c0.6-0.2,1.3-0.5,1.9-0.6c0.3,0,0.6-0.1,0.9,0c0.3,0,0.6,0.1,0.8,0.2c0.3,0.1,0.5,0.1,0.7,0.2    c0.2,0.1,0.4,0.2,0.5,0.3c0.3,0.2,0.4,0.3,0.4,0.3l0,0.2c0,0-0.2,0.1-0.4,0.2c-0.2,0.1-0.6,0.3-1.1,0.4c-0.2,0.1-0.5,0.1-0.7,0.2    c-0.3,0-0.5,0.1-0.8,0.2c-0.6,0.1-1.2,0-1.8,0.1c-0.6,0.1-1.2,0.3-1.8,0.3c-0.3,0.1-0.6,0.1-0.8,0.2c-0.3,0.1-0.5,0.2-0.8,0.2    c-0.5,0.1-0.9,0.3-1.2,0.3c-0.3,0.1-0.5,0.1-0.5,0.1L174.3,61.2z"/>
	</g>
	<g>
		<path fill="#FFFFFF" d="M161.8,75.9c0,0,0.1-0.2,0.3-0.5c0.2-0.3,0.5-0.8,0.9-1.3c0.2-0.3,0.3-0.6,0.5-0.9c0.2-0.3,0.4-0.7,0.7-1    c0.5-0.7,0.9-1.5,1.4-2.3c0.5-0.7,0.9-1.5,1.3-2.2c0.2-0.3,0.4-0.7,0.6-1c0.2-0.3,0.5-0.6,0.7-0.8c0.2-0.3,0.4-0.5,0.6-0.7    c0.2-0.2,0.3-0.4,0.4-0.6c0.2-0.3,0.4-0.5,0.4-0.5l0.2,0.1c0,0,0,0.1,0,0.2c0,0.1,0.1,0.3,0.1,0.5c0,0.5,0,1.1-0.2,1.8    c-0.1,0.4-0.2,0.7-0.4,1.1c-0.2,0.4-0.3,0.7-0.6,1.1c-0.4,0.7-1.1,1.3-1.7,2c-0.6,0.7-1.1,1.4-1.7,1.9c-0.3,0.3-0.6,0.6-0.9,0.9    c-0.3,0.3-0.5,0.6-0.8,0.8c-0.5,0.5-0.9,0.9-1.2,1.2c-0.3,0.3-0.5,0.4-0.5,0.4L161.8,75.9z"/>
	</g>
	<g>
		<path fill="#FFFFFF" d="M154.1,82.9c0,0,0.2-0.1,0.4-0.2c0.3-0.1,0.7-0.3,1.2-0.5c0.2-0.1,0.5-0.2,0.7-0.4    c0.3-0.1,0.5-0.2,0.8-0.4c0.3-0.2,0.6-0.3,0.8-0.5c0.1-0.1,0.3-0.2,0.4-0.3l0.4-0.3l0.2-0.1l0.2-0.2l0.3-0.3    c0.2-0.2,0.4-0.5,0.6-0.6c0.2-0.2,0.4-0.4,0.7-0.5c0.3-0.1,0.5-0.3,0.8-0.4c0.5-0.2,0.9-0.4,1.3-0.4c0.3-0.1,0.5-0.1,0.5-0.1    l0.1,0.2c0,0-0.1,0.2-0.2,0.5c-0.1,0.3-0.3,0.7-0.6,1.1c-0.1,0.2-0.3,0.4-0.5,0.6c-0.2,0.2-0.4,0.5-0.7,0.7    c-0.3,0.2-0.6,0.4-0.9,0.5c-0.3,0.1-0.7,0.3-1,0.4c-0.3,0.1-0.6,0.3-1,0.4c-0.2,0.1-0.3,0.1-0.5,0.2c-0.2,0-0.3,0.1-0.5,0.1    c-0.3,0.1-0.6,0.1-1,0.2c-0.3,0.1-0.6,0.1-0.9,0.1c-0.5,0.1-1,0.1-1.3,0.1c-0.3,0-0.5,0-0.5,0L154.1,82.9z"/>
	</g>
	<g>
		<path fill="#FFFFFF" d="M150.3,92.8c0,0,0-0.6,0.1-1.6c0-0.2,0.1-0.5,0.1-0.8c0-0.3,0.2-0.5,0.3-0.8c0.2-0.6,0.5-1.2,0.9-1.8    c0.4-0.5,0.8-1.1,1.4-1.5c0.1-0.1,0.3-0.2,0.4-0.3c0.2-0.1,0.3-0.1,0.5-0.2c0.3-0.1,0.6-0.1,0.9-0.1c0.1,0,0.3,0,0.4,0    c0.1,0,0.2,0.1,0.4,0.1c0.1,0,0.2,0.1,0.3,0.1c0.1,0,0.2,0.1,0.2,0.1c0.3,0.2,0.4,0.3,0.4,0.3l0,0.2c0,0-0.2,0.1-0.4,0.2    c-0.2,0.1-0.5,0.3-0.8,0.5c-0.2,0.1-0.3,0.2-0.5,0.3c-0.2,0.1-0.3,0.2-0.5,0.4c-0.4,0.2-0.9,0.5-1.3,0.8c-0.4,0.4-0.7,0.8-1.1,1.2    c-0.2,0.2-0.3,0.4-0.5,0.6c-0.1,0.2-0.2,0.4-0.3,0.6c-0.4,0.8-0.6,1.3-0.6,1.3L150.3,92.8z"/>
	</g>
	<g>
		<path fill="#FFFFFF" d="M207,80.6c0,0,0-0.1,0-0.4c0-0.3,0.1-0.7,0.2-1.3c0.1-0.3,0.2-0.6,0.3-0.9c0.1-0.3,0.3-0.6,0.5-0.9    c0.4-0.6,0.8-1.3,1.3-2c0.6-0.6,1.1-1.3,1.7-1.7c0.3-0.2,0.7-0.5,1.1-0.5c0.4-0.1,0.7-0.2,1-0.2c0.6-0.1,1.1,0,1.5,0    c0.4,0,0.6,0.1,0.6,0.1l0.1,0.2c0,0-0.1,0.2-0.4,0.4c-0.1,0.1-0.3,0.3-0.5,0.4c-0.1,0.1-0.2,0.2-0.3,0.2c-0.1,0.1-0.2,0.1-0.3,0.2    c-0.1,0.1-0.2,0.1-0.3,0.2c-0.1,0.1-0.2,0.2-0.3,0.2c-0.2,0.1-0.4,0.3-0.7,0.5c-0.5,0.4-1.2,0.7-1.7,1.1c-0.5,0.5-1,1-1.5,1.5    c-0.2,0.2-0.5,0.5-0.7,0.7c-0.2,0.3-0.3,0.5-0.5,0.7c-0.3,0.5-0.5,0.8-0.5,1.1c-0.1,0.1-0.1,0.2-0.1,0.3c0,0.1,0,0.1,0,0.1    L207,80.6z"/>
	</g>
	<g>
		<path fill="#FFFFFF" d="M190.3,73c0,0,0.1,0,0.2,0c0.1,0,0.3,0,0.6,0.1c0.5,0,1.2,0,2,0c0.4,0,0.8-0.1,1.3-0.2    c0.4-0.1,0.9-0.1,1.4-0.2c1-0.1,2.1-0.4,3.1-0.6c1-0.2,2.1-0.6,3-0.9c0.5-0.1,0.9-0.3,1.3-0.4c0.4-0.1,0.8-0.2,1.2-0.3    c0.7-0.2,1.3-0.5,1.7-0.7c0.2-0.1,0.4-0.2,0.5-0.3c0.1-0.1,0.2-0.1,0.2-0.1l0.2,0.2c0,0,0,0.1-0.1,0.2c0,0.2-0.1,0.4-0.3,0.6    c-0.3,0.5-0.8,1.1-1.5,1.7c-0.4,0.3-0.8,0.5-1.2,0.7c-0.4,0.2-0.9,0.4-1.4,0.6c-1,0.3-2.1,0.3-3.2,0.4c-1.1,0.1-2.1,0.2-3.1,0.2    c-0.5,0-1,0-1.5,0c-0.5,0-0.9,0-1.4-0.1c-0.9-0.1-1.6-0.2-2.1-0.3c-0.5-0.1-0.8-0.3-0.8-0.3L190.3,73z"/>
	</g>
	<g>
		<path fill="#FFFFFF" d="M181.2,67.3c0,0,0.1-0.2,0.3-0.6c0.2-0.4,0.5-0.9,0.9-1.4c0.2-0.3,0.4-0.6,0.7-0.9c0.2-0.3,0.6-0.7,0.9-1    c0.2-0.2,0.3-0.3,0.5-0.5c0.2-0.2,0.4-0.3,0.6-0.5c0.2-0.2,0.4-0.3,0.6-0.5c0.2-0.1,0.4-0.3,0.7-0.4c0.2-0.1,0.5-0.3,0.7-0.4    c0.2-0.1,0.5-0.2,0.7-0.3c0.5-0.2,1-0.4,1.5-0.5c0.5-0.1,0.9-0.2,1.4-0.2c0.4,0,0.9,0.1,1.3,0.1c0.8,0.1,1.4,0.4,1.7,0.7    c0.2,0.1,0.3,0.3,0.4,0.3c0.1,0.1,0.1,0.1,0.1,0.1l-0.1,0.2c0,0-0.1,0-0.2,0c-0.1,0-0.3,0-0.5,0c-0.4,0-0.9,0.2-1.6,0.3    c-0.3,0.1-0.7,0.1-1,0.2c-0.2,0-0.4,0.1-0.6,0.1c-0.2,0.1-0.4,0.1-0.6,0.2c-0.4,0.1-0.8,0.1-1.2,0.2c-0.4,0.1-0.9,0.2-1.3,0.3    c-0.4,0.2-0.8,0.4-1.2,0.6c-0.4,0.2-0.7,0.4-1.1,0.7c-0.3,0.2-0.7,0.4-1,0.7c-0.3,0.3-0.6,0.5-0.8,0.8c-0.5,0.5-0.9,0.9-1.2,1.2    c-0.3,0.3-0.5,0.5-0.5,0.5L181.2,67.3z"/>
	</g>
	<g>
		<path fill="#FFFFFF" d="M171.2,75.4c0,0,0-0.1,0-0.4c0-0.2,0-0.6,0.1-1c0-0.2,0.1-0.4,0.2-0.7c0.1-0.2,0.2-0.5,0.3-0.7    c0.3-0.5,0.6-0.9,1-1.4c0.4-0.4,0.8-0.8,1.2-1.1c0.2-0.1,0.4-0.3,0.7-0.3c0.2-0.1,0.5-0.1,0.7-0.1c0.2,0,0.4,0,0.6,0    c0.2,0,0.3,0,0.5,0c0.3,0,0.5,0,0.5,0l0.1,0.2c0,0,0,0.2-0.1,0.5c-0.1,0.2-0.1,0.3-0.2,0.5c-0.1,0.2-0.2,0.3-0.4,0.5    c-0.2,0.2-0.3,0.3-0.5,0.4c-0.2,0.1-0.3,0.3-0.5,0.4c-0.4,0.2-0.9,0.4-1.3,0.6c-0.2,0.1-0.4,0.3-0.6,0.4c-0.2,0.1-0.4,0.3-0.5,0.4    c-0.2,0.1-0.3,0.3-0.5,0.4c-0.1,0.2-0.2,0.3-0.3,0.5c-0.1,0.1-0.2,0.3-0.3,0.4c-0.1,0.1-0.1,0.2-0.2,0.3c-0.1,0.2-0.2,0.3-0.2,0.3    L171.2,75.4z"/>
	</g>
	<g>
		<path fill="#FFFFFF" d="M183.2,72.5c0,0,0.4-0.5,1-1.3c0.2-0.2,0.3-0.4,0.5-0.6c0.2-0.2,0.4-0.4,0.7-0.6c0.5-0.4,1-0.8,1.6-1.2    c0.6-0.3,1.2-0.7,1.9-0.8c0.3-0.1,0.7-0.1,1-0.1c0.3,0.1,0.6,0.1,0.9,0.2c0.5,0.2,0.9,0.5,1.1,0.8c0.2,0.3,0.2,0.4,0.2,0.4    l-0.1,0.2c0,0-0.2,0-0.4,0.1c-0.1,0-0.3,0.1-0.4,0.1c-0.2,0-0.3,0.1-0.5,0.1c-0.2,0.1-0.4,0.1-0.6,0.1c-0.2,0-0.5,0.1-0.7,0.2    c-0.5,0.1-1.1,0.1-1.7,0.2c-0.5,0.2-1.1,0.4-1.6,0.6c-0.3,0.1-0.5,0.2-0.7,0.3c-0.2,0.1-0.4,0.3-0.6,0.4c-0.8,0.5-1.3,0.8-1.3,0.8    L183.2,72.5z"/>
	</g>
	<g>
		<path fill="#FFFFFF" d="M182.6,83.6c0,0,0.1-0.2,0.2-0.5c0.2-0.3,0.5-0.7,0.9-1.3c0.2-0.3,0.4-0.5,0.7-0.8    c0.2-0.3,0.6-0.5,0.9-0.8c0.7-0.6,1.4-1.1,2.2-1.6c0.8-0.4,1.7-0.9,2.6-1.1c0.5-0.1,0.9-0.2,1.3-0.1c0.4,0,0.8,0.1,1.2,0.2    c0.7,0.2,1.2,0.5,1.5,0.8c0.2,0.1,0.3,0.3,0.3,0.3c0.1,0.1,0.1,0.1,0.1,0.1l-0.1,0.2c0,0-0.1,0-0.2,0c-0.1,0-0.3,0-0.4,0    c-0.4,0-0.9,0.1-1.4,0.2c-0.3,0.1-0.6,0.1-0.9,0.2c-0.3,0-0.7,0.2-1,0.2c-0.7,0.2-1.5,0.2-2.3,0.5c-0.7,0.3-1.5,0.7-2.2,1    c-0.3,0.2-0.7,0.4-1,0.6c-0.3,0.2-0.6,0.4-0.8,0.6c-0.5,0.4-0.9,0.7-1.2,1c-0.3,0.2-0.4,0.4-0.4,0.4L182.6,83.6z"/>
	</g>
	<g>
		<path fill="#FFFFFF" d="M167.8,83.3c0,0,0.1-0.1,0.2-0.4c0.1-0.1,0.2-0.3,0.3-0.5c0.1-0.2,0.3-0.4,0.4-0.6    c0.2-0.2,0.3-0.4,0.5-0.7c0.2-0.2,0.5-0.4,0.7-0.6c0.3-0.2,0.6-0.4,0.9-0.6c0.2-0.1,0.3-0.2,0.5-0.3c0.2-0.1,0.3-0.2,0.5-0.3    c0.2-0.1,0.4-0.1,0.5-0.2c0.2-0.1,0.4-0.1,0.5-0.2c0.4-0.1,0.7-0.3,1.1-0.3c0.4-0.1,0.7-0.1,1,0c0.3,0,0.7,0.1,1,0.2    c0.6,0.2,1.1,0.5,1.2,0.8c0.2,0.3,0.1,0.5,0.1,0.5c0,0,0,0-0.1,0.1c0,0-0.1,0.1-0.1,0.1s0,0-0.1,0c-0.1,0-0.1,0-0.2,0    c-0.2,0-0.5,0.1-1,0.2c-0.2,0-0.5,0.1-0.7,0.1c-0.1,0-0.3,0-0.4,0.1c-0.1,0-0.3,0.1-0.4,0.1c-0.3,0-0.6,0-0.9,0.1    c-0.3,0-0.6,0-1,0.1c-0.3,0.1-0.6,0.2-0.9,0.3c-0.3,0.1-0.6,0.2-0.9,0.3c-0.3,0.1-0.6,0.2-0.8,0.4c-0.2,0.2-0.5,0.3-0.7,0.4    c-0.2,0.1-0.4,0.3-0.5,0.4c-0.2,0.1-0.3,0.2-0.4,0.3c-0.2,0.2-0.4,0.3-0.4,0.3L167.8,83.3z"/>
	</g>
	<g>
		<path fill="#FFFFFF" d="M168.4,88.5c0,0,0.2-0.1,0.4-0.2c0.3-0.1,0.6-0.3,1.1-0.5c0.2-0.1,0.4-0.2,0.7-0.4    c0.2-0.1,0.5-0.2,0.7-0.4c0.5-0.3,1-0.6,1.5-0.9c0.5-0.3,0.9-0.7,1.3-0.9c0.2-0.1,0.4-0.3,0.7-0.3c0.2-0.1,0.5-0.1,0.7-0.2    c0.4-0.1,0.9-0.2,1.2-0.3c0.3-0.1,0.5-0.1,0.5-0.1l0.1,0.2c0,0,0,0.2-0.1,0.5c0,0.2-0.1,0.3-0.2,0.5c-0.1,0.2-0.2,0.4-0.4,0.6    c-0.2,0.2-0.3,0.4-0.6,0.6c-0.2,0.2-0.4,0.4-0.7,0.5c-0.5,0.3-1.2,0.4-1.8,0.6c-0.6,0.2-1.2,0.4-1.8,0.5c-0.3,0.1-0.6,0.1-0.9,0.1    c-0.3,0.1-0.5,0.1-0.8,0.1c-0.5,0.1-0.9,0.1-1.2,0.1c-0.3,0-0.4,0-0.4,0L168.4,88.5z"/>
	</g>
	<g>
		<path fill="#FFFFFF" d="M157.7,95.2c0,0,0-0.2-0.1-0.5c0-0.2,0-0.4-0.1-0.6c0-0.2,0-0.5,0-0.8c0-0.2,0-0.3,0-0.5    c0-0.2,0-0.3,0.1-0.5c0-0.4,0.2-0.8,0.3-1.1c0.1-0.2,0.1-0.4,0.2-0.6c0.1-0.2,0.2-0.4,0.3-0.6c0.2-0.4,0.4-0.8,0.6-1.2    c0.3-0.4,0.5-0.7,0.8-1.1c0.3-0.3,0.6-0.7,0.9-1c0.2-0.1,0.3-0.3,0.5-0.4c0.2-0.1,0.3-0.2,0.5-0.3c0.4-0.2,0.7-0.3,1-0.4    c0.7-0.2,1.2-0.3,1.6-0.3c0.2,0,0.4,0,0.5,0c0.1,0,0.2-0.1,0.2-0.1c0,0,0.1,0.2,0.1,0.2c0,0,0,0-0.1,0.1c0,0,0,0-0.1,0.1    c0,0,0,0-0.1,0.1c-0.1,0.1-0.2,0.2-0.3,0.4c-0.3,0.3-0.6,0.7-1.1,1.1c-0.2,0.2-0.4,0.4-0.7,0.6c-0.3,0.2-0.5,0.5-0.8,0.7    c-0.3,0.2-0.6,0.5-0.9,0.7c-0.3,0.2-0.6,0.5-0.9,0.8c-0.2,0.3-0.5,0.6-0.7,0.9c-0.2,0.3-0.4,0.6-0.6,0.9c-0.2,0.3-0.4,0.6-0.5,0.9    c-0.1,0.3-0.2,0.6-0.3,0.9c-0.1,0.3-0.1,0.5-0.2,0.8c0,0.2-0.1,0.4-0.1,0.6c-0.1,0.3-0.1,0.5-0.1,0.5L157.7,95.2z"/>
	</g>
	<g>
		<path fill="#FFFFFF" d="M147.6,101.7c0,0,0,0,0.1-0.1c0.1-0.1,0.2-0.2,0.3-0.3c0.2-0.3,0.4-0.6,0.6-1c0.1-0.2,0.1-0.4,0.2-0.7    c0.1-0.2,0.2-0.5,0.3-0.7c0.2-0.5,0.4-1.1,0.6-1.6c0.2-0.5,0.4-1.1,0.6-1.6c0.1-0.2,0.3-0.5,0.5-0.6c0.2-0.2,0.4-0.3,0.6-0.5    c0.7-0.6,1.5-0.8,1.5-0.8l0.2,0.1c0,0,0.1,0.7-0.2,1.6c-0.1,0.2-0.1,0.4-0.2,0.6c-0.1,0.2-0.2,0.5-0.3,0.7    c-0.3,0.4-0.7,0.8-1.1,1.3c-0.3,0.5-0.6,0.9-0.9,1.4c-0.2,0.2-0.3,0.4-0.5,0.6c-0.1,0.2-0.3,0.4-0.4,0.6c-0.3,0.4-0.6,0.7-0.9,0.9    c-0.1,0.1-0.3,0.2-0.4,0.2c-0.1,0-0.2,0.1-0.2,0.1L147.6,101.7z"/>
	</g>
	<g>
		<path fill="#FFFFFF" d="M156.4,114c0,0-0.6-0.1-1.4-0.2c-0.2,0-0.4-0.1-0.7-0.2c-0.2-0.1-0.5-0.2-0.7-0.3    c-0.2-0.1-0.5-0.3-0.7-0.4c-0.2-0.2-0.5-0.4-0.7-0.6c-0.2-0.2-0.4-0.5-0.6-0.7c-0.2-0.3-0.3-0.5-0.4-0.8c-0.1-0.3-0.2-0.5-0.1-0.8    c0-0.3,0.1-0.5,0.1-0.7c0.2-0.9,0.7-1.4,0.7-1.4l0.2,0c0,0,0.1,0.1,0.3,0.3c0.2,0.2,0.3,0.5,0.5,0.8c0.1,0.2,0.2,0.3,0.2,0.5    c0,0.1,0.1,0.2,0.1,0.3c0,0.1,0.1,0.2,0.1,0.3c0.1,0.2,0.1,0.4,0.1,0.6c0.1,0.2,0.1,0.4,0.2,0.7c0.1,0.2,0.3,0.4,0.4,0.5    c0.1,0.2,0.3,0.3,0.4,0.5c0.1,0.1,0.1,0.2,0.2,0.2c0.1,0.1,0.2,0.1,0.3,0.2c0.2,0.1,0.4,0.2,0.5,0.3c0.7,0.4,1.1,0.7,1.1,0.7    L156.4,114z"/>
	</g>
	<g>
		<path fill="#FFFFFF" d="M156,117.2c0,0-0.1,0-0.1,0c-0.1,0-0.2,0.1-0.4,0.1c-0.2,0-0.4,0.1-0.7,0c-0.1,0-0.3,0-0.5,0    c-0.2,0-0.3-0.1-0.5-0.1c-0.2,0-0.4-0.1-0.6-0.1c-0.2-0.1-0.4-0.1-0.6-0.2c-0.2-0.1-0.4-0.2-0.6-0.3c-0.2-0.1-0.4-0.3-0.6-0.4    c-0.8-0.6-1.6-1.4-2.3-2.4c-0.2-0.5-0.6-1-0.8-1.6c-0.1-0.3-0.2-0.5-0.3-0.8c-0.1-0.3-0.1-0.5-0.2-0.8c-0.1-0.5-0.1-1.1-0.1-1.5    c0-0.5,0.1-0.9,0.2-1.3c0.2-0.8,0.5-1.4,0.7-1.8c0.2-0.4,0.4-0.6,0.4-0.6l0.2,0.1c0,0,0.1,0.3,0.2,0.8c0,0.2,0.1,0.5,0.1,0.8    c0.1,0.3,0.1,0.6,0.1,1c0,0.2,0,0.4,0.1,0.6c0,0.2,0.1,0.4,0.1,0.6c0,0.2,0.1,0.4,0.1,0.6c0,0.2,0.1,0.4,0.1,0.6    c0,0.2,0.1,0.4,0.1,0.6c0,0.2,0.1,0.4,0.1,0.7c0.1,0.5,0.2,0.9,0.3,1.3c0.4,0.8,0.9,1.6,1.5,2.2c0.1,0.2,0.3,0.3,0.4,0.4l0.2,0.2    c0.1,0.1,0.2,0.1,0.2,0.2c0.3,0.2,0.7,0.4,1,0.5c0.6,0.3,1.2,0.4,1.6,0.5c0.2,0,0.3,0,0.4,0c0.1,0,0.1,0,0.1,0L156,117.2z"/>
	</g>
	<g>
		<path fill="#FFFFFF" d="M322.6,40.2c0,0,0.2,0,0.6,0.1c0.4,0,0.9,0.1,1.5,0.2c0.3,0,0.6,0.1,1,0.1c0.4,0,0.7,0.1,1.1,0.1    c0.4,0,0.8,0,1.2,0c0.4,0,0.8,0,1.2-0.1c0.4,0,0.8,0,1.2-0.1c0.4,0,0.8-0.1,1.2-0.1c0.4,0,0.8,0,1.1,0.1c0.4,0.1,0.7,0.2,1,0.2    c1.3,0.3,2.1,0.8,2.1,0.8l0,0.2c0,0-0.9,0.5-2.1,0.7c-0.3,0.1-0.7,0.1-1,0.1c-0.4,0-0.7,0.1-1.1,0.1c-0.4,0-0.8-0.1-1.2-0.1    c-0.2,0-0.4-0.1-0.6-0.1l-0.3,0l-0.3-0.1c-0.4,0-0.8-0.1-1.3-0.1c-0.4-0.1-0.8-0.2-1.2-0.3c-0.2,0-0.4-0.1-0.6-0.2    c-0.2-0.1-0.4-0.1-0.6-0.2c-0.4-0.1-0.7-0.2-1-0.3c-0.3-0.1-0.6-0.2-0.9-0.3c-0.2-0.1-0.5-0.2-0.6-0.3c-0.3-0.2-0.5-0.2-0.5-0.2    L322.6,40.2z"/>
	</g>
	<g>
		<path fill="#FFFFFF" d="M311.8,37.9c0,0,0.1-0.2,0.2-0.5c0.2-0.3,0.4-0.8,0.7-1.3c0.2-0.3,0.3-0.5,0.5-0.8    c0.2-0.3,0.5-0.6,0.8-0.8c0.6-0.5,1.4-1.1,2.4-1.3c1-0.2,1.9-0.3,2.8-0.2c0.4,0.1,0.8,0.2,1.2,0.4c0.4,0.2,0.7,0.4,0.9,0.6    c0.5,0.4,0.9,0.9,1,1.3c0.1,0.2,0.1,0.3,0.1,0.4c0,0.1,0,0.1,0,0.1l-0.2,0.1c0,0-0.2-0.1-0.5-0.2c-0.3-0.1-0.8-0.2-1.3-0.3    c-0.3-0.1-0.5-0.1-0.8-0.2c-0.3-0.1-0.6-0.1-0.9-0.2c-0.6-0.1-1.3-0.4-2-0.3c-0.7,0.1-1.3,0.3-1.9,0.6c-0.3,0.2-0.6,0.3-0.8,0.5    c-0.2,0.2-0.5,0.4-0.7,0.6c-0.4,0.4-0.7,0.8-1,1c-0.2,0.3-0.4,0.4-0.4,0.4L311.8,37.9z"/>
	</g>
	<g>
		<path fill="#FFFFFF" d="M314.2,27.5c0,0,0.5-0.5,1.4-1.1c0.2-0.2,0.5-0.3,0.7-0.5c0.3-0.2,0.6-0.3,0.9-0.4    c0.6-0.3,1.3-0.6,2.1-0.8c0.7-0.1,1.5-0.3,2.3-0.3c0.2,0,0.4,0,0.6,0.1c0.2,0,0.4,0.1,0.5,0.2c0.3,0.2,0.6,0.3,0.9,0.5    c0.1,0.1,0.2,0.2,0.3,0.3c0.1,0.1,0.2,0.2,0.3,0.3c0.1,0.1,0.1,0.2,0.2,0.3c0.1,0.1,0.1,0.2,0.1,0.3c0.1,0.3,0.2,0.5,0.2,0.5    l-0.2,0.1c0,0-0.2,0-0.5-0.1c-0.3,0-0.7-0.1-1.1-0.2c-0.2,0-0.5,0-0.7-0.1c-0.3,0-0.5,0-0.8-0.1c-0.5-0.1-1.2-0.2-1.8-0.3    c-0.6,0-1.3,0.2-1.9,0.3c-0.3,0.1-0.6,0.1-0.9,0.2c-0.3,0.1-0.5,0.2-0.8,0.3c-1,0.3-1.7,0.6-1.7,0.6L314.2,27.5z"/>
	</g>
	<g>
		<path fill="#FFFFFF" d="M306.1,29.1c0,0,0-0.1,0-0.3c0-0.2,0-0.5,0.1-0.9c0-0.2,0.1-0.4,0.1-0.6c0-0.2,0.1-0.4,0.2-0.7    c0.2-0.5,0.4-0.9,0.7-1.4c0.3-0.4,0.6-0.9,0.9-1.2c0.2-0.2,0.4-0.3,0.6-0.4c0.2-0.1,0.5-0.1,0.7-0.1c0.4-0.1,0.8,0,1.1,0.1    c0.3,0.1,0.4,0.2,0.4,0.2l0.1,0.2c0,0-0.1,0.1-0.2,0.3c-0.1,0.1-0.1,0.2-0.2,0.3c-0.1,0.1-0.2,0.2-0.3,0.4    c-0.1,0.1-0.2,0.3-0.4,0.4c-0.1,0.1-0.3,0.3-0.4,0.4c-0.3,0.2-0.8,0.4-1.1,0.7c-0.3,0.3-0.6,0.6-0.9,0.9c-0.1,0.2-0.3,0.3-0.4,0.5    c-0.1,0.2-0.2,0.3-0.3,0.5c-0.2,0.3-0.3,0.5-0.4,0.7c-0.1,0.2-0.1,0.2-0.1,0.2L306.1,29.1z"/>
	</g>
	<g>
		<path fill="#FFFFFF" d="M335.4,36.4c0,0,0.4-0.1,1.1-0.3c0.2,0,0.3-0.1,0.5-0.1c0.2,0,0.4,0,0.6-0.1c0.4,0,0.8-0.1,1.2-0.1    c0.4,0,0.7-0.1,1,0c0.1,0,0.3,0,0.4,0.1c0.1,0.1,0.3,0.2,0.4,0.3c0.1,0.1,0.3,0.2,0.4,0.3c0.1,0.1,0.2,0.2,0.3,0.3    c0.2,0.2,0.3,0.3,0.3,0.3l0,0.2c0,0-0.1,0.1-0.3,0.3c-0.2,0.2-0.4,0.3-0.8,0.4c-0.2,0.1-0.3,0.1-0.5,0.1c-0.2,0-0.4,0-0.6,0    c-0.4-0.1-0.7-0.3-1.1-0.5c-0.4-0.1-0.7-0.2-1.1-0.4c-0.2-0.1-0.3-0.1-0.5-0.2c-0.2,0-0.3-0.1-0.5-0.1c-0.6-0.1-0.9-0.3-0.9-0.3    L335.4,36.4z"/>
	</g>
	<g>
		<path fill="#FFFFFF" d="M209.9,58.7c0,0,1.2-0.5,3-1.2c0.5-0.2,1-0.4,1.5-0.6c0.5-0.2,1.2-0.3,1.8-0.5c1.3-0.3,2.6-0.7,4-0.9    c1.4-0.2,2.8-0.4,4.2-0.4c0.3,0,0.7,0,1,0.1c0.3,0,0.6,0.1,1,0.2c0.3,0.1,0.6,0.2,0.9,0.2c0.3,0.1,0.5,0.2,0.8,0.3    c0.3,0.1,0.5,0.2,0.7,0.3c0.2,0.1,0.4,0.2,0.6,0.3c0.2,0.1,0.4,0.2,0.5,0.3c0.1,0.1,0.3,0.2,0.4,0.3c0.5,0.4,0.7,0.6,0.7,0.6    l-0.1,0.2c0,0-0.4,0-1-0.1c-0.6-0.1-1.4-0.1-2.4-0.2c-0.5-0.1-1,0-1.5-0.1c-0.5,0-1.1,0-1.7,0c-1.2-0.1-2.4-0.2-3.7-0.2    c-1.3,0.1-2.5,0.3-3.8,0.4c-0.6,0.1-1.2,0.2-1.8,0.3c-0.6,0.1-1.1,0.2-1.6,0.3c-2,0.4-3.3,0.7-3.3,0.7L209.9,58.7z"/>
	</g>
</g>
<path fill="#FFFFFF" d="M78.9,139.3h-11c0,0,2.2,3.9,2.2,10.1v20.8c0,7.8-2.2,9.9-2.2,9.9h10.3c0,0-1.7-1.5-1.7-6.2v-21.6  C76.6,143.4,78.9,139.3,78.9,139.3z M44.1,147.5l-5.8,21l-10.6-29.2l-10.6,29.2l-4.2-15.3c-0.6-2.2-3-11.9,0-13.9H0  c0,0,4.2,6,7.3,17.1l6.5,23.8h5.3l8.5-23.2l8.5,23.2h5.3l8.5-31.1c1.9-6.4,4.3-9.8,4.3-9.8H44C44.7,141.7,44.7,145.4,44.1,147.5z   M98.9,144.8L98.9,144.8L98.9,144.8L98.9,144.8z M134.4,139.3h-9.6c0,0,1.2,2.8,1.2,7.3v22.8l-20.2-26.2c-1.8-2.1-1.5-4-1.5-4H93.7  c0,0,2.1,1.1,5.3,5.4h0v0v27.8c0,4.7-1.4,7.6-1.4,7.6h9.3c0,0-1.5-2.9-1.5-7.6v-20l18.2,23.7c0,0,1.8,2.6,2,4h8c0,0-1.4-3.7-1.4-10  v-16.7C132,144.8,134.4,139.3,134.4,139.3z M159,176.4v-16.2c6.9,0,10.8,1.9,10.8,1.9l3.6-5.8H159v-13.1c7.9,0,13,2.5,13,2.5  l3.3-6.3h-25.6c0,0,3,3.2,3,10.5v21.6c0,6.5-1.4,8.8-1.4,8.8h23.3l3.1-7.7C170,176.6,160.3,176.4,159,176.4z M330.3,176.4v-16.1  c6.9,0,10.5,1.9,10.5,1.9l3.6-5.8h-14.1v-13.2c7.9,0,14.2,2.5,14.2,2.5l3.3-6.3h-26.2c0,0,2.3,2.7,2.3,9.7v23.6  c0,4.7-1.7,7.6-1.7,7.6h24.9l3.6-8.7C343,175,334.8,176.4,330.3,176.4z M297.5,143.1l-12.7,15.9L271.9,143c-1.2-1.6-0.7-3.7-0.7-3.7  h-10.8c0,0,4.4,3.6,4.4,6.2c0,1.5,0,25.3,0,25.3c0,6-1.7,9.4-1.7,9.4h9.8c0,0-1.7-3.2-1.7-7.9v-21.4l13.6,16.9l13.7-17v21.7  c0,4.7-1.7,7.6-1.7,7.6h9.8c0,0-1.7-3.4-1.7-10.5v-22.8c0,0,0.6-5.3,3.6-7.6H300C299.4,140.9,297.5,143.1,297.5,143.1z M245.8,139.3  H236c0,0,1.7,2.9,1.7,7.6v23.2c0,7.8-2.1,10-2.1,10h10.2c0,0-1.7-2.9-1.7-7.6v-25.6C244.1,142.2,245.8,139.3,245.8,139.3z   M187.6,146.4c0,0,7.2-2.7,14.3-2.7v26.8c0,6.8-2.2,9.7-2.2,9.7H210c0,0-1.7-4.7-1.7-10.1v-26.5c6.2,0,9,0.1,11.9,2.3l3.3-6.6h-33.7  L187.6,146.4z"/>
<g>
	<g>
		<path fill="#FFFFFF" d="M127.8,261.9l2.9-14.6l4.7,10.6l4.8-10.6l2.6,14.6h-2.1l-1.3-8.2l-4,8.8l-3.9-8.9l-1.5,8.2H127.8z"/>
		<path fill="#FFFFFF" d="M158.6,258.6h-5.8l-1.5,3.3H149l6.7-14.5l6.5,14.5H160L158.6,258.6z M157.7,256.7l-2-4.6l-2.1,4.6H157.7z"/>
		<path fill="#FFFFFF" d="M173.3,256.1l4.2,5.8H175l-3.9-5.6h-0.4v5.6h-2.1v-13.6h2.4c1.8,0,3.1,0.3,3.9,1c0.9,0.8,1.3,1.7,1.3,3    c0,1-0.3,1.8-0.8,2.5C174.9,255.5,174.2,255.9,173.3,256.1z M170.7,254.6h0.7c1.9,0,2.9-0.7,2.9-2.2c0-1.4-0.9-2.1-2.8-2.1h-0.7    V254.6z"/>
		<path fill="#FFFFFF" d="M186.2,253.8l5.3-5.4h2.7l-6.2,6.2l6.2,7.4h-2.8l-4.9-6.1l-0.4,0.4v5.6h-2.1v-13.6h2.1V253.8z"/>
		<path fill="#FFFFFF" d="M208.3,250.3h-5.5v3.3h5.3v1.9h-5.3v4.5h5.5v1.9h-7.5v-13.6h7.5V250.3z"/>
		<path fill="#FFFFFF" d="M219.8,250.3v11.7h-2.1v-11.7h-3.1v-1.9h8.3v1.9H219.8z"/>
	</g>
</g>
<g>
	<g>
		<path fill="#FFFFFF" d="M75.3,227.6h5.6v0.4c0,1-0.1,1.9-0.4,2.7c-0.2,0.7-0.6,1.4-1.2,2c-1.3,1.4-2.9,2.1-4.8,2.1    c-1.9,0-3.5-0.7-4.9-2.1c-1.4-1.4-2-3-2-5c0-2,0.7-3.7,2.1-5c1.4-1.4,3.1-2.1,5-2.1c1.1,0,2.1,0.2,3,0.6c0.9,0.4,1.7,1.1,2.6,2.1    l-1.5,1.4c-1.1-1.5-2.5-2.2-4.1-2.2c-1.4,0-2.6,0.5-3.6,1.5c-1,1-1.5,2.2-1.5,3.7c0,1.5,0.5,2.8,1.6,3.7c1,0.9,2.1,1.4,3.3,1.4    c1,0,1.9-0.3,2.7-1c0.8-0.7,1.3-1.5,1.3-2.5h-3.4V227.6z"/>
		<path fill="#FFFFFF" d="M95.6,231.4h-5.8l-1.5,3.3H86l6.7-14.5l6.5,14.5H97L95.6,231.4z M94.7,229.4l-2-4.6l-2.1,4.6H94.7z"/>
		<path fill="#FFFFFF" d="M113.1,223.1l-1.7,1c-0.3-0.5-0.6-0.9-0.9-1.1c-0.3-0.2-0.7-0.3-1.1-0.3c-0.6,0-1,0.2-1.4,0.5    c-0.4,0.3-0.6,0.7-0.6,1.2c0,0.7,0.5,1.2,1.5,1.6l1.4,0.6c1.1,0.4,1.9,1,2.4,1.6c0.5,0.6,0.8,1.4,0.8,2.4c0,1.3-0.4,2.3-1.3,3.1    c-0.8,0.8-1.9,1.2-3.1,1.2c-1.2,0-2.2-0.4-2.9-1.1c-0.8-0.7-1.2-1.7-1.4-3l2.1-0.5c0.1,0.8,0.3,1.4,0.5,1.7c0.4,0.6,1,0.9,1.9,0.9    c0.6,0,1.2-0.2,1.6-0.6c0.4-0.4,0.6-1,0.6-1.6c0-0.3,0-0.5-0.1-0.7c-0.1-0.2-0.2-0.4-0.3-0.6c-0.2-0.2-0.4-0.4-0.6-0.5    c-0.2-0.2-0.5-0.3-0.9-0.5l-1.3-0.5c-1.9-0.8-2.8-1.9-2.8-3.5c0-1,0.4-1.9,1.2-2.6c0.8-0.7,1.8-1,2.9-1    C111,220.8,112.2,221.5,113.1,223.1z"/>
		<path fill="#FFFFFF" d="M124.6,223v11.7h-2.1V223h-3.1V221h8.3v1.9H124.6z"/>
		<path fill="#FFFFFF" d="M138.9,228.9l4.2,5.8h-2.5l-3.9-5.6h-0.4v5.6h-2.1V221h2.4c1.8,0,3.1,0.3,3.9,1c0.9,0.8,1.3,1.7,1.3,3    c0,1-0.3,1.8-0.8,2.5C140.5,228.2,139.8,228.7,138.9,228.9z M136.3,227.3h0.7c1.9,0,2.9-0.7,2.9-2.2c0-1.4-0.9-2.1-2.8-2.1h-0.7    V227.3z"/>
		<path fill="#FFFFFF" d="M148.8,227.8c0-1.9,0.7-3.6,2.1-4.9c1.4-1.4,3.1-2.1,5-2.1c1.9,0,3.6,0.7,5,2.1c1.4,1.4,2.1,3.1,2.1,5    c0,2-0.7,3.6-2.1,5c-1.4,1.4-3.1,2.1-5.1,2.1c-1.8,0-3.3-0.6-4.7-1.8C149.6,231.7,148.8,230,148.8,227.8z M150.9,227.8    c0,1.5,0.5,2.7,1.5,3.7c1,1,2.2,1.5,3.5,1.5c1.4,0,2.6-0.5,3.6-1.5c1-1,1.5-2.2,1.5-3.6c0-1.5-0.5-2.7-1.5-3.6    c-1-1-2.2-1.5-3.6-1.5c-1.4,0-2.6,0.5-3.6,1.5C151.4,225.2,150.9,226.4,150.9,227.8z"/>
		<path fill="#FFFFFF" d="M222.3,221l3.5,9.1l3.7-9.8l3.5,9.8l3.8-9.1h2.2l-6.1,14.5l-3.5-9.6l-3.7,9.7l-5.8-14.5H222.3z"/>
		<path fill="#FFFFFF" d="M247.6,221v13.6h-2.1V221H247.6z"/>
		<path fill="#FFFFFF" d="M255.6,234.7v-14.5l9.9,10.4V221h2.1v14.4l-9.9-10.4v9.5H255.6z"/>
		<path fill="#FFFFFF" d="M283.1,223h-5.5v3.3h5.3v1.9h-5.3v4.5h5.5v1.9h-7.5V221h7.5V223z"/>
	</g>
</g>
<path fill="#EF4823" d="M196.8,231.3c-0.1-0.1-0.1-0.1-0.2-0.2c1.2-2.3,1.4-5.3,1.4-8.8c1,0,2.3,0.8,2.3,0.8v-0.8v-1.6h-6.9v1.6v0.8  c0,0,1.3-0.8,2.4-0.8c0,2.8,0,5.2-0.8,7.1c-1.6-1.6-3.2-2.6-4.5-3.2c0.9-0.8,1.5-2,1.5-3.3c0-2.5-2.3-4-4.5-4s-4.5,1.5-4.5,4  c0,1.2,0.6,2.4,1.5,3.3c-1.8,0.9-3.5,2.6-3.5,5.2c0,3.9,4.2,5.1,6.4,5.2c0,0,0.2,0,0.5,0c1.1,0,3.8-0.2,6.3-2.5  c0.4-0.4,0.8-0.8,1.1-1.2c1.4,1.7,2.9,2.9,4.5,3.5l0.8-2C199.3,234,198,232.9,196.8,231.3z M187.6,221.1c1.1,0,2.3,0.7,2.3,1.8  c0,1.1-1.2,2.3-2.3,2.3l0,0l0,0c-1.1,0-2.3-1.2-2.3-2.3C185.2,221.8,186.5,221.1,187.6,221.1z M192.8,232.6c-2.3,2.1-5,1.9-5.2,1.9  c-4.3-0.2-4.4-3-4.4-3.1c0-3,3.5-3.8,4.3-4c0.7,0.1,3.5,0.9,6.4,3.9C193.6,231.8,193.2,232.2,192.8,232.6z"/>
</svg>